<?xml version="1.0" standalone="no"?>
  <!DOCTYPE svg PUBLIC "-//W3C//DTD SVG 1.1//EN" "http://www.w3.org/Graphics/SVG/1.1/DTD/svg11.dtd" >
  <svg>
  <metadata>
  Created by font-carrier
  </metadata>
  <defs>
  <font id="Montserrat-ExtraLightItalic" horiz-adv-x="1579" vert-adv-y="1579" >
    <font-face
      
      font-family="Montserrat ExtraLight"
      
      font-weight="400"
      
      font-stretch="normal"
      
      units-per-em="1000"
      
      ascent="968"
      
      descent="-251"
      
    />
      <missing-glyph />

      

      
      <glyph glyph-name="uni41" unicode="&#x41;" d="M549 205L128 205L-7 0L-45 0L419 700L452 700L636 0L602 0L549 205M541 234L430 663L147 234L541 234Z"  horiz-adv-x="696" vert-adv-y="1000"  />

      
      <glyph glyph-name="unic1" unicode="&#xc1;" d="M549 205L128 205L-7 0L-45 0L419 700L452 700L636 0L602 0L549 205M541 234L430 663L147 234L541 234M547 870L604 870L438 757L396 757L547 870Z"  horiz-adv-x="696" vert-adv-y="1000"  />

      
      <glyph glyph-name="uni0102" unicode="&#x0102;" d="M549 205L128 205L-7 0L-45 0L419 700L452 700L636 0L602 0L549 205M541 234L430 663L147 234L541 234M458 754Q400 754 363.50 786Q327 818 331 870L358 870Q355 829 383.50 804Q412 779 459 779Q505 779 539 803.50Q573 828 579 870L606 870Q598 817 556.50 785.50Q515 754 458 754Z"  horiz-adv-x="696" vert-adv-y="1000"  />

      
      <glyph glyph-name="uni1EAE" unicode="&#x1EAE;" d="M549 205L128 205L-7 0L-45 0L419 700L452 700L636 0L602 0L549 205M541 234L430 663L147 234L541 234M455 754Q399 754 364.50 777Q330 800 326 840L353 840Q357 810 384 794Q411 778 457 778Q504 778 534 794Q564 810 574 840L601 840Q591 799 552 776.50Q513 754 455 754M554 958L608 958L457 856L417 856L554 958Z"  horiz-adv-x="696" vert-adv-y="1000"  />

      
      <glyph glyph-name="uni1EB6" unicode="&#x1EB6;" d="M549 205L128 205L-7 0L-45 0L419 700L452 700L636 0L602 0L549 205M541 234L430 663L147 234L541 234M261-179Q249-179 241.50-170.50Q234-162 236-150Q237-137 247.50-128Q258-119 271-119Q283-119 290.50-127.50Q298-136 296-148Q295-161 284.50-170Q274-179 261-179M458 754Q400 754 363.50 786Q327 818 331 870L358 870Q355 829 383.50 804Q412 779 459 779Q505 779 539 803.50Q573 828 579 870L606 870Q598 817 556.50 785.50Q515 754 458 754Z"  horiz-adv-x="696" vert-adv-y="1000"  />

      
      <glyph glyph-name="uni1EB0" unicode="&#x1EB0;" d="M549 205L128 205L-7 0L-45 0L419 700L452 700L636 0L602 0L549 205M541 234L430 663L147 234L541 234M455 754Q399 754 364.50 777Q330 800 326 840L353 840Q357 810 384 794Q411 778 457 778Q504 778 534 794Q564 810 574 840L601 840Q591 799 552 776.50Q513 754 455 754M359 958L411 958L516 856L478 856L359 958Z"  horiz-adv-x="696" vert-adv-y="1000"  />

      
      <glyph glyph-name="uni1EB2" unicode="&#x1EB2;" d="M549 205L128 205L-7 0L-45 0L419 700L452 700L636 0L602 0L549 205M541 234L430 663L147 234L541 234M455 754Q399 754 364.50 777Q330 800 326 840L353 840Q357 810 384 794Q411 778 457 778Q504 778 534 794Q564 810 574 840L601 840Q591 799 552 776.50Q513 754 455 754M446 849Q498 870 498 907Q498 921 488 930Q478 939 460 939Q437 939 415 926L408 946Q433 962 464 962Q491 962 506.50 948Q522 934 522 910Q522 858 458 831L446 849Z"  horiz-adv-x="696" vert-adv-y="1000"  />

      
      <glyph glyph-name="uni1EB4" unicode="&#x1EB4;" d="M549 205L128 205L-7 0L-45 0L419 700L452 700L636 0L602 0L549 205M541 234L430 663L147 234L541 234M455 754Q399 754 364.50 777Q330 800 326 840L353 840Q357 810 384 794Q411 778 457 778Q504 778 534 794Q564 810 574 840L601 840Q591 799 552 776.50Q513 754 455 754M537 869Q517 869 502.50 876.50Q488 884 470 899Q453 911 442.50 917Q432 923 419 923Q394 923 378 909.50Q362 896 357 872L332 872Q338 906 362 927Q386 948 418 948Q438 948 452.50 940.50Q467 933 486 918Q503 905 513 899.50Q523 894 536 894Q561 894 577.50 907.50Q594 921 599 944L623 944Q617 910 593.50 889.50Q570 869 537 869Z"  horiz-adv-x="696" vert-adv-y="1000"  />

      
      <glyph glyph-name="uni01CD" unicode="&#x01CD;" d="M549 205L128 205L-7 0L-45 0L419 700L452 700L636 0L602 0L549 205M541 234L430 663L147 234L541 234M614 870L477 757L435 757L324 870L359 870L458 780L575 870L614 870Z"  horiz-adv-x="696" vert-adv-y="1000"  />

      
      <glyph glyph-name="unic2" unicode="&#xc2;" d="M549 205L128 205L-7 0L-45 0L419 700L452 700L636 0L602 0L549 205M541 234L430 663L147 234L541 234M557 757L458 847L341 757L302 757L439 870L481 870L592 757L557 757Z"  horiz-adv-x="696" vert-adv-y="1000"  />

      
      <glyph glyph-name="uni1EA4" unicode="&#x1EA4;" d="M549 205L128 205L-7 0L-45 0L419 700L452 700L636 0L602 0L549 205M541 234L430 663L147 234L541 234M554 757L457 819L344 757L303 757L438 840L478 840L593 757L554 757M662 936L716 936L565 834L525 834L662 936Z"  horiz-adv-x="696" vert-adv-y="1000"  />

      
      <glyph glyph-name="uni1EAC" unicode="&#x1EAC;" d="M549 205L128 205L-7 0L-45 0L419 700L452 700L636 0L602 0L549 205M541 234L430 663L147 234L541 234M261-179Q249-179 241.50-170.50Q234-162 236-150Q237-137 247.50-128Q258-119 271-119Q283-119 290.50-127.50Q298-136 296-148Q295-161 284.50-170Q274-179 261-179M557 757L458 847L341 757L302 757L439 870L481 870L592 757L557 757Z"  horiz-adv-x="696" vert-adv-y="1000"  />

      
      <glyph glyph-name="uni1EA6" unicode="&#x1EA6;" d="M549 205L128 205L-7 0L-45 0L419 700L452 700L636 0L602 0L549 205M541 234L430 663L147 234L541 234M554 757L457 819L344 757L303 757L438 840L478 840L593 757L554 757M467 936L519 936L624 834L586 834L467 936Z"  horiz-adv-x="696" vert-adv-y="1000"  />

      
      <glyph glyph-name="uni1EA8" unicode="&#x1EA8;" d="M549 205L128 205L-7 0L-45 0L419 700L452 700L636 0L602 0L549 205M541 234L430 663L147 234L541 234M554 757L457 819L344 757L303 757L438 840L478 840L593 757L554 757M551 837Q603 858 603 895Q603 909 593 918Q583 927 565 927Q542 927 520 914L513 934Q538 950 569 950Q596 950 611.50 936Q627 922 627 898Q627 846 563 819L551 837Z"  horiz-adv-x="696" vert-adv-y="1000"  />

      
      <glyph glyph-name="uni1EAA" unicode="&#x1EAA;" d="M549 205L128 205L-7 0L-45 0L419 700L452 700L636 0L602 0L549 205M541 234L430 663L147 234L541 234M554 757L457 819L344 757L303 757L438 840L478 840L593 757L554 757M538 874Q518 874 503.50 881.50Q489 889 471 904Q454 916 443.50 922Q433 928 420 928Q395 928 379 914.50Q363 901 358 877L333 877Q339 911 363 932Q387 953 419 953Q439 953 453.50 945.50Q468 938 487 923Q504 910 514 904.50Q524 899 537 899Q562 899 578.50 912.50Q595 926 600 949L624 949Q618 915 594.50 894.50Q571 874 538 874Z"  horiz-adv-x="696" vert-adv-y="1000"  />

      
      <glyph glyph-name="uni0200" unicode="&#x0200;" d="M549 205L128 205L-7 0L-45 0L419 700L452 700L636 0L602 0L549 205M541 234L430 663L147 234L541 234M263 870L307 870L392 757L357 757L263 870M408 870L453 870L537 757L502 757L408 870Z"  horiz-adv-x="696" vert-adv-y="1000"  />

      
      <glyph glyph-name="unic4" unicode="&#xc4;" d="M549 205L128 205L-7 0L-45 0L419 700L452 700L636 0L602 0L549 205M541 234L430 663L147 234L541 234M374 788Q362 788 353.50 796Q345 804 345 816Q345 830 354.50 839.50Q364 849 377 849Q388 849 397 840.50Q406 832 406 821Q406 808 396.50 798Q387 788 374 788M542 788Q530 788 521.50 796Q513 804 513 816Q513 830 522 839.50Q531 849 544 849Q556 849 564.50 840.50Q573 832 573 821Q573 807 564 797.50Q555 788 542 788Z"  horiz-adv-x="696" vert-adv-y="1000"  />

      
      <glyph glyph-name="uni1EA0" unicode="&#x1EA0;" d="M549 205L128 205L-7 0L-45 0L419 700L452 700L636 0L602 0L549 205M541 234L430 663L147 234L541 234M261-179Q249-179 241.50-170.50Q234-162 236-150Q237-137 247.50-128Q258-119 271-119Q283-119 290.50-127.50Q298-136 296-148Q295-161 284.50-170Q274-179 261-179Z"  horiz-adv-x="696" vert-adv-y="1000"  />

      
      <glyph glyph-name="unic0" unicode="&#xc0;" d="M549 205L128 205L-7 0L-45 0L419 700L452 700L636 0L602 0L549 205M541 234L430 663L147 234L541 234M326 870L380 870L497 757L457 757L326 870Z"  horiz-adv-x="696" vert-adv-y="1000"  />

      
      <glyph glyph-name="uni1EA2" unicode="&#x1EA2;" d="M549 205L128 205L-7 0L-45 0L419 700L452 700L636 0L602 0L549 205M541 234L430 663L147 234L541 234M447 772Q517 802 517 853Q517 875 502.50 887.50Q488 900 464 900Q434 900 402 881L393 902Q427 925 468 925Q503 925 524 907Q545 889 545 858Q545 823 524 797.50Q503 772 458 752L447 772Z"  horiz-adv-x="696" vert-adv-y="1000"  />

      
      <glyph glyph-name="uni0202" unicode="&#x0202;" d="M549 205L128 205L-7 0L-45 0L419 700L452 700L636 0L602 0L549 205M541 234L430 663L147 234L541 234M310 757Q318 810 359.50 842Q401 874 458 874Q515 874 551.50 841.50Q588 809 584 757L557 757Q560 799 532 824Q504 849 456 849Q411 849 377 824Q343 799 337 757L310 757Z"  horiz-adv-x="696" vert-adv-y="1000"  />

      
      <glyph glyph-name="uni0100" unicode="&#x0100;" d="M549 205L128 205L-7 0L-45 0L419 700L452 700L636 0L602 0L549 205M541 234L430 663L147 234L541 234M320 827L601 827L596 800L315 800L320 827Z"  horiz-adv-x="696" vert-adv-y="1000"  />

      
      <glyph glyph-name="uni0104" unicode="&#x0104;" d="M549 205L128 205L-7 0L-45 0L419 700L452 700L636 0L602 0L549 205M541 234L430 663L147 234L541 234M535-215Q499-215 476.50-195.50Q454-176 454-143Q454-47 623 19L636 0Q483-59 483-139Q483-164 498-177Q513-190 539-190Q577-190 609-166L618-188Q582-215 535-215Z"  horiz-adv-x="696" vert-adv-y="1000"  />

      
      <glyph glyph-name="unic5" unicode="&#xc5;" d="M549 205L128 205L-7 0L-45 0L419 700L452 700L636 0L602 0L549 205M541 234L430 663L147 234L541 234M471 778Q430 778 403 805Q376 832 376 871Q376 910 403.50 938Q431 966 471 966Q512 966 539.50 938Q567 910 567 871Q567 832 539.50 805Q512 778 471 778M471 800Q502 800 522.50 820.50Q543 841 543 871Q543 901 522 922Q501 943 471 943Q441 943 420.50 922Q400 901 400 871Q400 841 420 820.50Q440 800 471 800Z"  horiz-adv-x="696" vert-adv-y="1000"  />

      
      <glyph glyph-name="uni01FA" unicode="&#x01FA;" d="M549 205L128 205L-7 0L-45 0L419 700L452 700L636 0L602 0L549 205M541 234L430 663L147 234L541 234M545 931Q567 906 567 871Q567 832 539.50 805Q512 778 471 778Q430 778 403 805Q376 832 376 871Q376 910 403.50 938Q431 966 471 966Q503 966 526 949L607 1027L630 1009L545 931M471 800Q502 800 522.50 820.50Q543 841 543 871Q543 901 522 922Q501 943 471 943Q441 943 420.50 922Q400 901 400 871Q400 841 420 820.50Q440 800 471 800Z"  horiz-adv-x="696" vert-adv-y="1000"  />

      
      <glyph glyph-name="unic3" unicode="&#xc3;" d="M549 205L128 205L-7 0L-45 0L419 700L452 700L636 0L602 0L549 205M541 234L430 663L147 234L541 234M522 767Q501 767 485.50 776.50Q470 786 450 805Q433 821 421.50 828.50Q410 836 395 836Q372 836 356 818Q340 800 335 770L310 770Q316 812 339 837Q362 862 396 862Q417 862 431.50 853Q446 844 467 825Q483 809 495 801Q507 793 522 793Q545 793 561 810.50Q577 828 582 857L607 857Q600 816 577.50 791.50Q555 767 522 767Z"  horiz-adv-x="696" vert-adv-y="1000"  />

      
      <glyph glyph-name="unic6" unicode="&#xc6;" d="M587 669L528 371L908 371L902 340L522 340L460 31L900 31L893 0L420 0L461 205L164 205L-5 0L-45 0L533 700L1018 700L1012 669L587 669M467 234L554 670L548 670L188 234L467 234Z"  horiz-adv-x="1012" vert-adv-y="1000"  />

      
      <glyph glyph-name="uni01FC" unicode="&#x01FC;" d="M587 669L528 371L908 371L902 340L522 340L460 31L900 31L893 0L420 0L461 205L164 205L-5 0L-45 0L533 700L1018 700L1012 669L587 669M467 234L554 670L548 670L188 234L467 234M688 870L745 870L579 757L537 757L688 870Z"  horiz-adv-x="1012" vert-adv-y="1000"  />

      
      <glyph glyph-name="uni42" unicode="&#x42;" d="M540 359Q606 348 641 312Q676 276 676 215Q676 111 599.50 55.50Q523 0 383 0L76 0L216 700L499 700Q596 700 650.50 663Q705 626 705 557Q705 479 660 428Q615 377 540 359M184 370L435 370Q541 370 605.50 417Q670 464 670 552Q670 610 624.50 640Q579 670 495 670L244 670L184 370M388 30Q510 30 576 77.50Q642 125 642 213Q642 281 595.50 311Q549 341 454 341L178 341L116 30L388 30Z"  horiz-adv-x="750" vert-adv-y="1000"  />

      
      <glyph glyph-name="uni43" unicode="&#x43;" d="M387-4Q286-4 214.50 31.50Q143 67 106 131.50Q69 196 69 281Q69 395 120.50 492Q172 589 268 646.50Q364 704 491 704Q571 704 633 680Q695 656 730 612L706 591Q636 673 489 673Q374 673 286 620Q198 567 150.50 478Q103 389 103 282Q103 165 177 96Q251 27 390 27Q537 27 629 113L649 88Q603 45 534.50 20.50Q466-4 387-4Z"  horiz-adv-x="713" vert-adv-y="1000"  />

      
      <glyph glyph-name="uni0106" unicode="&#x0106;" d="M387-4Q286-4 214.50 31.50Q143 67 106 131.50Q69 196 69 281Q69 395 120.50 492Q172 589 268 646.50Q364 704 491 704Q571 704 633 680Q695 656 730 612L706 591Q636 673 489 673Q374 673 286 620Q198 567 150.50 478Q103 389 103 282Q103 165 177 96Q251 27 390 27Q537 27 629 113L649 88Q603 45 534.50 20.50Q466-4 387-4M606 870L663 870L497 757L455 757L606 870Z"  horiz-adv-x="713" vert-adv-y="1000"  />

      
      <glyph glyph-name="uni010C" unicode="&#x010C;" d="M387-4Q286-4 214.50 31.50Q143 67 106 131.50Q69 196 69 281Q69 395 120.50 492Q172 589 268 646.50Q364 704 491 704Q571 704 633 680Q695 656 730 612L706 591Q636 673 489 673Q374 673 286 620Q198 567 150.50 478Q103 389 103 282Q103 165 177 96Q251 27 390 27Q537 27 629 113L649 88Q603 45 534.50 20.50Q466-4 387-4M673 870L536 757L494 757L383 870L418 870L517 780L634 870L673 870Z"  horiz-adv-x="713" vert-adv-y="1000"  />

      
      <glyph glyph-name="unic7" unicode="&#xc7;" d="M387-4Q286-4 214.50 31.50Q143 67 106 131.50Q69 196 69 281Q69 395 120.50 492Q172 589 268 646.50Q364 704 491 704Q571 704 633 680Q695 656 730 612L706 591Q636 673 489 673Q374 673 286 620Q198 567 150.50 478Q103 389 103 282Q103 165 177 96Q251 27 390 27Q537 27 629 113L649 88Q603 45 534.50 20.50Q466-4 387-4M313-215Q263-215 234-189L250-168Q277-190 315-190Q349-190 369.50-172Q390-154 390-124Q390-102 374-89.50Q358-77 330-77L314-77L353 5L378 5L350-55Q382-58 400.50-76.50Q419-95 419-124Q419-163 389.50-189Q360-215 313-215Z"  horiz-adv-x="713" vert-adv-y="1000"  />

      
      <glyph glyph-name="uni1E08" unicode="&#x1E08;" d="M387-4Q286-4 214.50 31.50Q143 67 106 131.50Q69 196 69 281Q69 395 120.50 492Q172 589 268 646.50Q364 704 491 704Q571 704 633 680Q695 656 730 612L706 591Q636 673 489 673Q374 673 286 620Q198 567 150.50 478Q103 389 103 282Q103 165 177 96Q251 27 390 27Q537 27 629 113L649 88Q603 45 534.50 20.50Q466-4 387-4M313-215Q263-215 234-189L250-168Q277-190 315-190Q349-190 369.50-172Q390-154 390-124Q390-102 374-89.50Q358-77 330-77L314-77L353 5L378 5L350-55Q382-58 400.50-76.50Q419-95 419-124Q419-163 389.50-189Q360-215 313-215M606 870L663 870L497 757L455 757L606 870Z"  horiz-adv-x="713" vert-adv-y="1000"  />

      
      <glyph glyph-name="uni0108" unicode="&#x0108;" d="M387-4Q286-4 214.50 31.50Q143 67 106 131.50Q69 196 69 281Q69 395 120.50 492Q172 589 268 646.50Q364 704 491 704Q571 704 633 680Q695 656 730 612L706 591Q636 673 489 673Q374 673 286 620Q198 567 150.50 478Q103 389 103 282Q103 165 177 96Q251 27 390 27Q537 27 629 113L649 88Q603 45 534.50 20.50Q466-4 387-4M616 757L517 847L400 757L361 757L498 870L540 870L651 757L616 757Z"  horiz-adv-x="713" vert-adv-y="1000"  />

      
      <glyph glyph-name="uni010A" unicode="&#x010A;" d="M387-4Q286-4 214.50 31.50Q143 67 106 131.50Q69 196 69 281Q69 395 120.50 492Q172 589 268 646.50Q364 704 491 704Q571 704 633 680Q695 656 730 612L706 591Q636 673 489 673Q374 673 286 620Q198 567 150.50 478Q103 389 103 282Q103 165 177 96Q251 27 390 27Q537 27 629 113L649 88Q603 45 534.50 20.50Q466-4 387-4M517 788Q505 788 496 796.50Q487 805 487 817Q487 831 497 841.50Q507 852 520 852Q532 852 541 843.50Q550 835 550 823Q550 809 540 798.50Q530 788 517 788Z"  horiz-adv-x="713" vert-adv-y="1000"  />

      
      <glyph glyph-name="uni44" unicode="&#x44;" d="M216 700L471 700Q574 700 646.50 665Q719 630 756.50 566.50Q794 503 794 419Q794 297 740.50 202Q687 107 588 53.50Q489 0 358 0L76 0L216 700M361 31Q481 31 572 80.50Q663 130 712 217.50Q761 305 761 418Q761 534 686 601.50Q611 669 468 669L243 669L116 31L361 31Z"  horiz-adv-x="826" vert-adv-y="1000"  />

      
      <glyph glyph-name="uni01C4" unicode="&#x01C4;" d="M216 700L471 700Q574 700 646.50 665Q719 630 756.50 566.50Q794 503 794 419Q794 297 740.50 202Q687 107 588 53.50Q489 0 358 0L76 0L216 700M361 31Q481 31 572 80.50Q663 130 712 217.50Q761 305 761 418Q761 534 686 601.50Q611 669 468 669L243 669L116 31L361 31M1485 676L860 31L1367 31L1360 0L804 0L809 24L1434 669L944 669L950 700L1490 700L1485 676M1401 870L1264 757L1222 757L1111 870L1146 870L1245 780L1362 870L1401 870Z"  horiz-adv-x="1460" vert-adv-y="1000"  />

      
      <glyph glyph-name="unid0" unicode="&#xd0;" d="M217 700L472 700Q575 700 647.50 665Q720 630 757.50 566.50Q795 503 795 419Q795 297 741.50 202Q688 107 589 53.50Q490 0 359 0L77 0L217 700M362 31Q482 31 573 80.50Q664 130 713 217.50Q762 305 762 418Q762 534 687 601.50Q612 669 469 669L244 669L117 31L362 31M39 370L406 370L400 341L33 341L39 370Z"  horiz-adv-x="827" vert-adv-y="1000"  />

      
      <glyph glyph-name="uni010E" unicode="&#x010E;" d="M216 700L471 700Q574 700 646.50 665Q719 630 756.50 566.50Q794 503 794 419Q794 297 740.50 202Q687 107 588 53.50Q489 0 358 0L76 0L216 700M361 31Q481 31 572 80.50Q663 130 712 217.50Q761 305 761 418Q761 534 686 601.50Q611 669 468 669L243 669L116 31L361 31M655 869L518 756L476 756L365 869L400 869L499 779L616 869L655 869Z"  horiz-adv-x="826" vert-adv-y="1000"  />

      
      <glyph glyph-name="uni0110" unicode="&#x0110;" d="M217 700L472 700Q575 700 647.50 665Q720 630 757.50 566.50Q795 503 795 419Q795 297 741.50 202Q688 107 589 53.50Q490 0 359 0L77 0L217 700M362 31Q482 31 573 80.50Q664 130 713 217.50Q762 305 762 418Q762 534 687 601.50Q612 669 469 669L244 669L117 31L362 31M39 370L406 370L400 341L33 341L39 370Z"  horiz-adv-x="827" vert-adv-y="1000"  />

      
      <glyph glyph-name="uni1E0C" unicode="&#x1E0C;" d="M216 700L471 700Q574 700 646.50 665Q719 630 756.50 566.50Q794 503 794 419Q794 297 740.50 202Q687 107 588 53.50Q489 0 358 0L76 0L216 700M361 31Q481 31 572 80.50Q663 130 712 217.50Q761 305 761 418Q761 534 686 601.50Q611 669 468 669L243 669L116 31L361 31M306-179Q294-179 286.50-170.50Q279-162 281-150Q282-137 292.50-128Q303-119 316-119Q328-119 335.50-127.50Q343-136 341-148Q340-161 329.50-170Q319-179 306-179Z"  horiz-adv-x="826" vert-adv-y="1000"  />

      
      <glyph glyph-name="uni1E0E" unicode="&#x1E0E;" d="M216 700L471 700Q574 700 646.50 665Q719 630 756.50 566.50Q794 503 794 419Q794 297 740.50 202Q687 107 588 53.50Q489 0 358 0L76 0L216 700M361 31Q481 31 572 80.50Q663 130 712 217.50Q761 305 761 418Q761 534 686 601.50Q611 669 468 669L243 669L116 31L361 31M173-135L454-135L449-162L168-162L173-135Z"  horiz-adv-x="826" vert-adv-y="1000"  />

      
      <glyph glyph-name="uni01C5" unicode="&#x01C5;" d="M216 700L471 700Q574 700 646.50 665Q719 630 756.50 566.50Q794 503 794 419Q794 297 740.50 202Q687 107 588 53.50Q489 0 358 0L76 0L216 700M361 31Q481 31 572 80.50Q663 130 712 217.50Q761 305 761 418Q761 534 686 601.50Q611 669 468 669L243 669L116 31L361 31M1317 496L872 29L1230 29L1224 0L819 0L823 23L1269 490L923 490L928 519L1322 519L1317 496M1310 720L1173 607L1131 607L1020 720L1055 720L1154 630L1271 720L1310 720Z"  horiz-adv-x="1322" vert-adv-y="1000"  />

      
      <glyph glyph-name="uni45" unicode="&#x45;" d="M243 669L184 371L564 371L558 340L178 340L116 31L556 31L549 0L76 0L216 700L674 700L668 669L243 669Z"  horiz-adv-x="668" vert-adv-y="1000"  />

      
      <glyph glyph-name="unic9" unicode="&#xc9;" d="M243 669L184 371L564 371L558 340L178 340L116 31L556 31L549 0L76 0L216 700L674 700L668 669L243 669M557 870L614 870L448 757L406 757L557 870Z"  horiz-adv-x="668" vert-adv-y="1000"  />

      
      <glyph glyph-name="uni0114" unicode="&#x0114;" d="M243 669L184 371L564 371L558 340L178 340L116 31L556 31L549 0L76 0L216 700L674 700L668 669L243 669M468 754Q410 754 373.50 786Q337 818 341 870L368 870Q365 829 393.50 804Q422 779 469 779Q515 779 549 803.50Q583 828 589 870L616 870Q608 817 566.50 785.50Q525 754 468 754Z"  horiz-adv-x="668" vert-adv-y="1000"  />

      
      <glyph glyph-name="uni011A" unicode="&#x011A;" d="M243 669L184 371L564 371L558 340L178 340L116 31L556 31L549 0L76 0L216 700L674 700L668 669L243 669M624 870L487 757L445 757L334 870L369 870L468 780L585 870L624 870Z"  horiz-adv-x="668" vert-adv-y="1000"  />

      
      <glyph glyph-name="uni1E1C" unicode="&#x1E1C;" d="M243 669L184 371L564 371L558 340L178 340L116 31L556 31L549 0L76 0L216 700L674 700L668 669L243 669M270-215Q220-215 191-189L207-168Q234-190 272-190Q306-190 326.50-172Q347-154 347-124Q347-102 331-89.50Q315-77 287-77L271-77L310 5L335 5L307-55Q339-58 357.50-76.50Q376-95 376-124Q376-163 346.50-189Q317-215 270-215M468 754Q410 754 373.50 786Q337 818 341 870L368 870Q365 829 393.50 804Q422 779 469 779Q515 779 549 803.50Q583 828 589 870L616 870Q608 817 566.50 785.50Q525 754 468 754Z"  horiz-adv-x="668" vert-adv-y="1000"  />

      
      <glyph glyph-name="unica" unicode="&#xca;" d="M243 669L184 371L564 371L558 340L178 340L116 31L556 31L549 0L76 0L216 700L674 700L668 669L243 669M567 757L468 847L351 757L312 757L449 870L491 870L602 757L567 757Z"  horiz-adv-x="668" vert-adv-y="1000"  />

      
      <glyph glyph-name="uni1EBE" unicode="&#x1EBE;" d="M243 669L184 371L564 371L558 340L178 340L116 31L556 31L549 0L76 0L216 700L674 700L668 669L243 669M564 757L467 819L354 757L313 757L448 840L488 840L603 757L564 757M672 936L726 936L575 834L535 834L672 936Z"  horiz-adv-x="668" vert-adv-y="1000"  />

      
      <glyph glyph-name="uni1EC6" unicode="&#x1EC6;" d="M243 669L184 371L564 371L558 340L178 340L116 31L556 31L549 0L76 0L216 700L674 700L668 669L243 669M287-179Q275-179 267.50-170.50Q260-162 262-150Q263-137 273.50-128Q284-119 297-119Q309-119 316.50-127.50Q324-136 322-148Q321-161 310.50-170Q300-179 287-179M567 757L468 847L351 757L312 757L449 870L491 870L602 757L567 757Z"  horiz-adv-x="668" vert-adv-y="1000"  />

      
      <glyph glyph-name="uni1EC0" unicode="&#x1EC0;" d="M243 669L184 371L564 371L558 340L178 340L116 31L556 31L549 0L76 0L216 700L674 700L668 669L243 669M564 757L467 819L354 757L313 757L448 840L488 840L603 757L564 757M477 936L529 936L634 834L596 834L477 936Z"  horiz-adv-x="668" vert-adv-y="1000"  />

      
      <glyph glyph-name="uni1EC2" unicode="&#x1EC2;" d="M243 669L184 371L564 371L558 340L178 340L116 31L556 31L549 0L76 0L216 700L674 700L668 669L243 669M564 757L467 819L354 757L313 757L448 840L488 840L603 757L564 757M561 837Q613 858 613 895Q613 909 603 918Q593 927 575 927Q552 927 530 914L523 934Q548 950 579 950Q606 950 621.50 936Q637 922 637 898Q637 846 573 819L561 837Z"  horiz-adv-x="668" vert-adv-y="1000"  />

      
      <glyph glyph-name="uni1EC4" unicode="&#x1EC4;" d="M243 669L184 371L564 371L558 340L178 340L116 31L556 31L549 0L76 0L216 700L674 700L668 669L243 669M564 757L467 819L354 757L313 757L448 840L488 840L603 757L564 757M548 874Q528 874 513.50 881.50Q499 889 481 904Q464 916 453.50 922Q443 928 430 928Q405 928 389 914.50Q373 901 368 877L343 877Q349 911 373 932Q397 953 429 953Q449 953 463.50 945.50Q478 938 497 923Q514 910 524 904.50Q534 899 547 899Q572 899 588.50 912.50Q605 926 610 949L634 949Q628 915 604.50 894.50Q581 874 548 874Z"  horiz-adv-x="668" vert-adv-y="1000"  />

      
      <glyph glyph-name="uni0204" unicode="&#x0204;" d="M243 669L184 371L564 371L558 340L178 340L116 31L556 31L549 0L76 0L216 700L674 700L668 669L243 669M273 870L317 870L402 757L367 757L273 870M418 870L463 870L547 757L512 757L418 870Z"  horiz-adv-x="668" vert-adv-y="1000"  />

      
      <glyph glyph-name="unicb" unicode="&#xcb;" d="M243 669L184 371L564 371L558 340L178 340L116 31L556 31L549 0L76 0L216 700L674 700L668 669L243 669M384 788Q372 788 363.50 796Q355 804 355 816Q355 830 364.50 839.50Q374 849 387 849Q398 849 407 840.50Q416 832 416 821Q416 808 406.50 798Q397 788 384 788M552 788Q540 788 531.50 796Q523 804 523 816Q523 830 532 839.50Q541 849 554 849Q566 849 574.50 840.50Q583 832 583 821Q583 807 574 797.50Q565 788 552 788Z"  horiz-adv-x="668" vert-adv-y="1000"  />

      
      <glyph glyph-name="uni0116" unicode="&#x0116;" d="M243 669L184 371L564 371L558 340L178 340L116 31L556 31L549 0L76 0L216 700L674 700L668 669L243 669M468 788Q456 788 447 796.50Q438 805 438 817Q438 831 448 841.50Q458 852 471 852Q483 852 492 843.50Q501 835 501 823Q501 809 491 798.50Q481 788 468 788Z"  horiz-adv-x="668" vert-adv-y="1000"  />

      
      <glyph glyph-name="uni1EB8" unicode="&#x1EB8;" d="M243 669L184 371L564 371L558 340L178 340L116 31L556 31L549 0L76 0L216 700L674 700L668 669L243 669M287-179Q275-179 267.50-170.50Q260-162 262-150Q263-137 273.50-128Q284-119 297-119Q309-119 316.50-127.50Q324-136 322-148Q321-161 310.50-170Q300-179 287-179Z"  horiz-adv-x="668" vert-adv-y="1000"  />

      
      <glyph glyph-name="unic8" unicode="&#xc8;" d="M243 669L184 371L564 371L558 340L178 340L116 31L556 31L549 0L76 0L216 700L674 700L668 669L243 669M336 870L390 870L507 757L467 757L336 870Z"  horiz-adv-x="668" vert-adv-y="1000"  />

      
      <glyph glyph-name="uni1EBA" unicode="&#x1EBA;" d="M243 669L184 371L564 371L558 340L178 340L116 31L556 31L549 0L76 0L216 700L674 700L668 669L243 669M457 772Q527 802 527 853Q527 875 512.50 887.50Q498 900 474 900Q444 900 412 881L403 902Q437 925 478 925Q513 925 534 907Q555 889 555 858Q555 823 534 797.50Q513 772 468 752L457 772Z"  horiz-adv-x="668" vert-adv-y="1000"  />

      
      <glyph glyph-name="uni0206" unicode="&#x0206;" d="M243 669L184 371L564 371L558 340L178 340L116 31L556 31L549 0L76 0L216 700L674 700L668 669L243 669M320 757Q328 810 369.50 842Q411 874 468 874Q525 874 561.50 841.50Q598 809 594 757L567 757Q570 799 542 824Q514 849 466 849Q421 849 387 824Q353 799 347 757L320 757Z"  horiz-adv-x="668" vert-adv-y="1000"  />

      
      <glyph glyph-name="uni0112" unicode="&#x0112;" d="M243 669L184 371L564 371L558 340L178 340L116 31L556 31L549 0L76 0L216 700L674 700L668 669L243 669M330 827L611 827L606 800L325 800L330 827Z"  horiz-adv-x="668" vert-adv-y="1000"  />

      
      <glyph glyph-name="uni1E16" unicode="&#x1E16;" d="M243 669L184 371L564 371L558 340L178 340L116 31L556 31L549 0L76 0L216 700L674 700L668 669L243 669M327 812L608 812L603 786L322 786L327 812M568 977L622 977L471 875L431 875L568 977Z"  horiz-adv-x="668" vert-adv-y="1000"  />

      
      <glyph glyph-name="uni1E14" unicode="&#x1E14;" d="M243 669L184 371L564 371L558 340L178 340L116 31L556 31L549 0L76 0L216 700L674 700L668 669L243 669M327 812L608 812L603 786L322 786L327 812M373 977L425 977L530 875L492 875L373 977Z"  horiz-adv-x="668" vert-adv-y="1000"  />

      
      <glyph glyph-name="uni0118" unicode="&#x0118;" d="M243 669L184 371L564 371L558 340L178 340L116 31L556 31L549 0L76 0L216 700L674 700L668 669L243 669M448-215Q412-215 389.50-195.50Q367-176 367-143Q367-47 536 19L549 0Q396-59 396-139Q396-164 411-177Q426-190 452-190Q490-190 522-166L531-188Q495-215 448-215Z"  horiz-adv-x="668" vert-adv-y="1000"  />

      
      <glyph glyph-name="uni1EBC" unicode="&#x1EBC;" d="M243 669L184 371L564 371L558 340L178 340L116 31L556 31L549 0L76 0L216 700L674 700L668 669L243 669M532 767Q511 767 495.50 776.50Q480 786 460 805Q443 821 431.50 828.50Q420 836 405 836Q382 836 366 818Q350 800 345 770L320 770Q326 812 349 837Q372 862 406 862Q427 862 441.50 853Q456 844 477 825Q493 809 505 801Q517 793 532 793Q555 793 571 810.50Q587 828 592 857L617 857Q610 816 587.50 791.50Q565 767 532 767Z"  horiz-adv-x="668" vert-adv-y="1000"  />

      
      <glyph glyph-name="uni01B7" unicode="&#x01B7;" d="M571 676L296 390Q398 387 451 342.50Q504 298 504 218Q504 152 470.50 102Q437 52 375.50 24Q314-4 233-4Q153-4 91 22.50Q29 49 1 93L24 117Q49 77 104.50 52Q160 27 235 27Q307 27 360 50.50Q413 74 441.50 117Q470 160 470 217Q470 361 278 361L246 361L251 385L523 669L140 669L146 700L576 700L571 676Z"  horiz-adv-x="580" vert-adv-y="1000"  />

      
      <glyph glyph-name="uni01EE" unicode="&#x01EE;" d="M571 676L296 390Q398 387 451 342.50Q504 298 504 218Q504 152 470.50 102Q437 52 375.50 24Q314-4 233-4Q153-4 91 22.50Q29 49 1 93L24 117Q49 77 104.50 52Q160 27 235 27Q307 27 360 50.50Q413 74 441.50 117Q470 160 470 217Q470 361 278 361L246 361L251 385L523 669L140 669L146 700L576 700L571 676M545 870L408 757L366 757L255 870L290 870L389 780L506 870L545 870Z"  horiz-adv-x="580" vert-adv-y="1000"  />

      
      <glyph glyph-name="uni46" unicode="&#x46;" d="M243 669L179 349L560 349L553 319L173 319L110 0L76 0L216 700L674 700L668 669L243 669Z"  horiz-adv-x="630" vert-adv-y="1000"  />

      
      <glyph glyph-name="uni47" unicode="&#x47;" d="M492 704Q573 704 637 680Q701 656 737 612L713 590Q641 673 489 673Q374 673 286.50 620.50Q199 568 151 478.50Q103 389 103 282Q103 166 177.50 96.50Q252 27 391 27Q512 27 602 100L651 345L683 345L632 86Q585 44 521.50 20Q458-4 387-4Q287-4 215.50 31.50Q144 67 106.50 131.50Q69 196 69 281Q69 395 120.50 492Q172 589 268.50 646.50Q365 704 492 704Z"  horiz-adv-x="774" vert-adv-y="1000"  />

      
      <glyph glyph-name="uni011E" unicode="&#x011E;" d="M492 704Q573 704 637 680Q701 656 737 612L713 590Q641 673 489 673Q374 673 286.50 620.50Q199 568 151 478.50Q103 389 103 282Q103 166 177.50 96.50Q252 27 391 27Q512 27 602 100L651 345L683 345L632 86Q585 44 521.50 20Q458-4 387-4Q287-4 215.50 31.50Q144 67 106.50 131.50Q69 196 69 281Q69 395 120.50 492Q172 589 268.50 646.50Q365 704 492 704M513 753Q455 753 418.50 785Q382 817 386 869L413 869Q410 828 438.50 803Q467 778 514 778Q560 778 594 802.50Q628 827 634 869L661 869Q653 816 611.50 784.50Q570 753 513 753Z"  horiz-adv-x="774" vert-adv-y="1000"  />

      
      <glyph glyph-name="uni01E6" unicode="&#x01E6;" d="M492 704Q573 704 637 680Q701 656 737 612L713 590Q641 673 489 673Q374 673 286.50 620.50Q199 568 151 478.50Q103 389 103 282Q103 166 177.50 96.50Q252 27 391 27Q512 27 602 100L651 345L683 345L632 86Q585 44 521.50 20Q458-4 387-4Q287-4 215.50 31.50Q144 67 106.50 131.50Q69 196 69 281Q69 395 120.50 492Q172 589 268.50 646.50Q365 704 492 704M669 869L532 756L490 756L379 869L414 869L513 779L630 869L669 869Z"  horiz-adv-x="774" vert-adv-y="1000"  />

      
      <glyph glyph-name="uni011C" unicode="&#x011C;" d="M492 704Q573 704 637 680Q701 656 737 612L713 590Q641 673 489 673Q374 673 286.50 620.50Q199 568 151 478.50Q103 389 103 282Q103 166 177.50 96.50Q252 27 391 27Q512 27 602 100L651 345L683 345L632 86Q585 44 521.50 20Q458-4 387-4Q287-4 215.50 31.50Q144 67 106.50 131.50Q69 196 69 281Q69 395 120.50 492Q172 589 268.50 646.50Q365 704 492 704M612 756L513 846L396 756L357 756L494 869L536 869L647 756L612 756Z"  horiz-adv-x="774" vert-adv-y="1000"  />

      
      <glyph glyph-name="uni0122" unicode="&#x0122;" d="M492 704Q573 704 637 680Q701 656 737 612L713 590Q641 673 489 673Q374 673 286.50 620.50Q199 568 151 478.50Q103 389 103 282Q103 166 177.50 96.50Q252 27 391 27Q512 27 602 100L651 345L683 345L632 86Q585 44 521.50 20Q458-4 387-4Q287-4 215.50 31.50Q144 67 106.50 131.50Q69 196 69 281Q69 395 120.50 492Q172 589 268.50 646.50Q365 704 492 704M320-119Q333-119 341.50-127.50Q350-136 350-148Q350-157 347.50-163.50Q345-170 339-181L298-260L275-260L311-177Q302-174 296-166.50Q290-159 290-149Q290-137 298.50-128Q307-119 320-119Z"  horiz-adv-x="774" vert-adv-y="1000"  />

      
      <glyph glyph-name="uni0120" unicode="&#x0120;" d="M492 704Q573 704 637 680Q701 656 737 612L713 590Q641 673 489 673Q374 673 286.50 620.50Q199 568 151 478.50Q103 389 103 282Q103 166 177.50 96.50Q252 27 391 27Q512 27 602 100L651 345L683 345L632 86Q585 44 521.50 20Q458-4 387-4Q287-4 215.50 31.50Q144 67 106.50 131.50Q69 196 69 281Q69 395 120.50 492Q172 589 268.50 646.50Q365 704 492 704M513 787Q501 787 492 795.50Q483 804 483 816Q483 830 493 840.50Q503 851 516 851Q528 851 537 842.50Q546 834 546 822Q546 808 536 797.50Q526 787 513 787Z"  horiz-adv-x="774" vert-adv-y="1000"  />

      
      <glyph glyph-name="uni1E20" unicode="&#x1E20;" d="M492 704Q573 704 637 680Q701 656 737 612L713 590Q641 673 489 673Q374 673 286.50 620.50Q199 568 151 478.50Q103 389 103 282Q103 166 177.50 96.50Q252 27 391 27Q512 27 602 100L651 345L683 345L632 86Q585 44 521.50 20Q458-4 387-4Q287-4 215.50 31.50Q144 67 106.50 131.50Q69 196 69 281Q69 395 120.50 492Q172 589 268.50 646.50Q365 704 492 704M375 826L656 826L651 799L370 799L375 826Z"  horiz-adv-x="774" vert-adv-y="1000"  />

      
      <glyph glyph-name="uni01E4" unicode="&#x01E4;" d="M492 704Q573 704 637 680Q701 656 737 612L713 590Q641 673 489 673Q374 673 286.50 620.50Q199 568 151 478.50Q103 389 103 282Q103 166 177.50 96.50Q252 27 391 27Q512 27 602 100L651 345L683 345L632 86Q585 44 521.50 20Q458-4 387-4Q287-4 215.50 31.50Q144 67 106.50 131.50Q69 196 69 281Q69 395 120.50 492Q172 589 268.50 646.50Q365 704 492 704M411 249L778 249L772 220L405 220L411 249Z"  horiz-adv-x="805" vert-adv-y="1000"  />

      
      <glyph glyph-name="uni48" unicode="&#x48;" d="M775 700L635 0L601 0L669 340L178 340L110 0L76 0L216 700L250 700L184 371L675 371L741 700L775 700Z"  horiz-adv-x="815" vert-adv-y="1000"  />

      
      <glyph glyph-name="uni0126" unicode="&#x0126;" d="M776 700L636 0L602 0L670 340L179 340L111 0L77 0L217 700L251 700L185 371L676 371L742 700L776 700M77 556L859 556L853 527L71 527L77 556Z"  horiz-adv-x="817" vert-adv-y="1000"  />

      
      <glyph glyph-name="uni1E2A" unicode="&#x1E2A;" d="M775 700L635 0L601 0L669 340L178 340L110 0L76 0L216 700L250 700L184 371L675 371L741 700L775 700M325-200Q267-200 231.50-169Q196-138 199-88L226-88Q224-129 251-152Q278-175 326-175Q374-175 407-152Q440-129 446-88L473-88Q466-140 424.50-170Q383-200 325-200Z"  horiz-adv-x="815" vert-adv-y="1000"  />

      
      <glyph glyph-name="uni021E" unicode="&#x021E;" d="M775 700L635 0L601 0L669 340L178 340L110 0L76 0L216 700L250 700L184 371L675 371L741 700L775 700M673 870L536 757L494 757L383 870L418 870L517 780L634 870L673 870Z"  horiz-adv-x="815" vert-adv-y="1000"  />

      
      <glyph glyph-name="uni0124" unicode="&#x0124;" d="M775 700L635 0L601 0L669 340L178 340L110 0L76 0L216 700L250 700L184 371L675 371L741 700L775 700M616 757L517 847L400 757L361 757L498 870L540 870L651 757L616 757Z"  horiz-adv-x="815" vert-adv-y="1000"  />

      
      <glyph glyph-name="uni1E24" unicode="&#x1E24;" d="M775 700L635 0L601 0L669 340L178 340L110 0L76 0L216 700L250 700L184 371L675 371L741 700L775 700M320-179Q308-179 300.50-170.50Q293-162 295-150Q296-137 306.50-128Q317-119 330-119Q342-119 349.50-127.50Q357-136 355-148Q354-161 343.50-170Q333-179 320-179Z"  horiz-adv-x="815" vert-adv-y="1000"  />

      
      <glyph glyph-name="uni49" unicode="&#x49;" d="M216 700L250 700L110 0L76 0L216 700Z"  horiz-adv-x="290" vert-adv-y="1000"  />

      
      <glyph glyph-name="uni0132" unicode="&#x0132;" d="M290-4Q225-4 170 13.50Q115 31 75 61L95 89Q134 60 183.50 43.50Q233 27 291 27Q405 27 472 92Q539 157 566 295L647 700L680 700L599 291Q569 141 493 68.50Q417-4 290-4M210 700L244 700L162 293L129 293L210 700Z"  horiz-adv-x="715" vert-adv-y="1000"  />

      
      <glyph glyph-name="unicd" unicode="&#xcd;" d="M216 700L250 700L110 0L76 0L216 700M344 870L401 870L235 757L193 757L344 870Z"  horiz-adv-x="290" vert-adv-y="1000"  />

      
      <glyph glyph-name="uni012C" unicode="&#x012C;" d="M216 700L250 700L110 0L76 0L216 700M255 754Q197 754 160.50 786Q124 818 128 870L155 870Q152 829 180.50 804Q209 779 256 779Q302 779 336 803.50Q370 828 376 870L403 870Q395 817 353.50 785.50Q312 754 255 754Z"  horiz-adv-x="290" vert-adv-y="1000"  />

      
      <glyph glyph-name="unice" unicode="&#xce;" d="M216 700L250 700L110 0L76 0L216 700M354 757L255 847L138 757L99 757L236 870L278 870L389 757L354 757Z"  horiz-adv-x="290" vert-adv-y="1000"  />

      
      <glyph glyph-name="uni0208" unicode="&#x0208;" d="M216 700L250 700L110 0L76 0L216 700M60 870L104 870L189 757L154 757L60 870M205 870L250 870L334 757L299 757L205 870Z"  horiz-adv-x="290" vert-adv-y="1000"  />

      
      <glyph glyph-name="unicf" unicode="&#xcf;" d="M216 700L250 700L110 0L76 0L216 700M171 788Q159 788 150.50 796Q142 804 142 816Q142 830 151.50 839.50Q161 849 174 849Q185 849 194 840.50Q203 832 203 821Q203 808 193.50 798Q184 788 171 788M339 788Q327 788 318.50 796Q310 804 310 816Q310 830 319 839.50Q328 849 341 849Q353 849 361.50 840.50Q370 832 370 821Q370 807 361 797.50Q352 788 339 788Z"  horiz-adv-x="290" vert-adv-y="1000"  />

      
      <glyph glyph-name="uni1E2E" unicode="&#x1E2E;" d="M216 700L250 700L110 0L76 0L216 700M171 788Q160 788 151.50 796Q143 804 143 816Q143 829 152 838.50Q161 848 174 848Q186 848 194.50 840Q203 832 203 820Q203 807 193.50 797.50Q184 788 171 788M338 788Q327 788 318.50 796Q310 804 310 816Q310 829 319 838.50Q328 848 341 848Q353 848 361.50 840Q370 832 370 820Q370 807 360.50 797.50Q351 788 338 788M355 977L409 977L258 875L218 875L355 977Z"  horiz-adv-x="290" vert-adv-y="1000"  />

      
      <glyph glyph-name="uni0130" unicode="&#x0130;" d="M216 700L250 700L110 0L76 0L216 700M255 788Q243 788 234 796.50Q225 805 225 817Q225 831 235 841.50Q245 852 258 852Q270 852 279 843.50Q288 835 288 823Q288 809 278 798.50Q268 788 255 788Z"  horiz-adv-x="290" vert-adv-y="1000"  />

      
      <glyph glyph-name="uni1ECA" unicode="&#x1ECA;" d="M216 700L250 700L110 0L76 0L216 700M58-179Q46-179 38.50-170.50Q31-162 33-150Q34-137 44.50-128Q55-119 68-119Q80-119 87.50-127.50Q95-136 93-148Q92-161 81.50-170Q71-179 58-179Z"  horiz-adv-x="290" vert-adv-y="1000"  />

      
      <glyph glyph-name="unicc" unicode="&#xcc;" d="M216 700L250 700L110 0L76 0L216 700M123 870L177 870L294 757L254 757L123 870Z"  horiz-adv-x="290" vert-adv-y="1000"  />

      
      <glyph glyph-name="uni1EC8" unicode="&#x1EC8;" d="M216 700L250 700L110 0L76 0L216 700M244 772Q314 802 314 853Q314 875 299.50 887.50Q285 900 261 900Q231 900 199 881L190 902Q224 925 265 925Q300 925 321 907Q342 889 342 858Q342 823 321 797.50Q300 772 255 752L244 772Z"  horiz-adv-x="290" vert-adv-y="1000"  />

      
      <glyph glyph-name="uni020A" unicode="&#x020A;" d="M216 700L250 700L110 0L76 0L216 700M107 757Q115 810 156.50 842Q198 874 255 874Q312 874 348.50 841.50Q385 809 381 757L354 757Q357 799 329 824Q301 849 253 849Q208 849 174 824Q140 799 134 757L107 757Z"  horiz-adv-x="290" vert-adv-y="1000"  />

      
      <glyph glyph-name="uni012A" unicode="&#x012A;" d="M216 700L250 700L110 0L76 0L216 700M144 828L373 828L368 801L139 801L144 828Z"  horiz-adv-x="290" vert-adv-y="1000"  />

      
      <glyph glyph-name="uni012E" unicode="&#x012E;" d="M216 700L250 700L110 0L76 0L216 700M59-215Q31-215 14-197Q-3-179-3-149Q-3-105 25-61.50Q53-18 98 17L110 0Q26-75 26-147Q26-168 36.50-179Q47-190 64-190Q85-190 105-172L114-192Q93-215 59-215Z"  horiz-adv-x="290" vert-adv-y="1000"  />

      
      <glyph glyph-name="uni0128" unicode="&#x0128;" d="M216 700L250 700L110 0L76 0L216 700M319 767Q298 767 282.50 776.50Q267 786 247 805Q230 821 218.50 828.50Q207 836 192 836Q169 836 153 818Q137 800 132 770L107 770Q113 812 136 837Q159 862 193 862Q214 862 228.50 853Q243 844 264 825Q280 809 292 801Q304 793 319 793Q342 793 358 810.50Q374 828 379 857L404 857Q397 816 374.50 791.50Q352 767 319 767Z"  horiz-adv-x="290" vert-adv-y="1000"  />

      
      <glyph glyph-name="uni4a" unicode="&#x4a;" d="M141-4Q80-4 34.50 23Q-11 50-32 96L-5 115Q14 74 53 50.50Q92 27 144 27Q214 27 255.50 66.50Q297 106 315 199L409 669L149 669L155 700L449 700L348 195Q327 88 277 42Q227-4 141-4Z"  horiz-adv-x="483" vert-adv-y="1000"  />

      
      <glyph glyph-name="uni0134" unicode="&#x0134;" d="M141-4Q80-4 34.50 23Q-11 50-32 96L-5 115Q14 74 53 50.50Q92 27 144 27Q214 27 255.50 66.50Q297 106 315 199L409 669L149 669L155 700L449 700L348 195Q327 88 277 42Q227-4 141-4M423 757L324 847L207 757L168 757L305 870L347 870L458 757L423 757Z"  horiz-adv-x="483" vert-adv-y="1000"  />

      
      <glyph glyph-name="uni4b" unicode="&#x4b;" d="M372 378L632 0L593 0L347 356L147 185L110 0L76 0L216 700L250 700L157 234L704 700L751 700L372 378Z"  horiz-adv-x="697" vert-adv-y="1000"  />

      
      <glyph glyph-name="uni01E8" unicode="&#x01E8;" d="M372 378L632 0L593 0L347 356L147 185L110 0L76 0L216 700L250 700L157 234L704 700L751 700L372 378M637 870L500 757L458 757L347 870L382 870L481 780L598 870L637 870Z"  horiz-adv-x="697" vert-adv-y="1000"  />

      
      <glyph glyph-name="uni0136" unicode="&#x0136;" d="M372 378L632 0L593 0L347 356L147 185L110 0L76 0L216 700L250 700L157 234L704 700L751 700L372 378M289-119Q302-119 310.50-127.50Q319-136 319-148Q319-157 316.50-163.50Q314-170 308-181L267-260L244-260L280-177Q271-174 265-166.50Q259-159 259-149Q259-137 267.50-128Q276-119 289-119Z"  horiz-adv-x="697" vert-adv-y="1000"  />

      
      <glyph glyph-name="uni4c" unicode="&#x4c;" d="M216 700L250 700L116 31L527 31L520 0L76 0L216 700Z"  horiz-adv-x="582" vert-adv-y="1000"  />

      
      <glyph glyph-name="uni01C7" unicode="&#x01C7;" d="M216 700L250 700L116 31L527 31L520 0L76 0L216 700M723-4Q662-4 616.50 23Q571 50 550 96L577 115Q596 74 635 50.50Q674 27 726 27Q796 27 837.50 66.50Q879 106 897 199L991 669L731 669L737 700L1031 700L930 195Q909 88 859 42Q809-4 723-4Z"  horiz-adv-x="1065" vert-adv-y="1000"  />

      
      <glyph glyph-name="uni0139" unicode="&#x0139;" d="M216 700L250 700L116 31L527 31L520 0L76 0L216 700M344 870L401 870L235 757L193 757L344 870Z"  horiz-adv-x="582" vert-adv-y="1000"  />

      
      <glyph glyph-name="uni013D" unicode="&#x013D;" d="M216 700L250 700L116 31L527 31L520 0L76 0L216 700M537 722L567 722L527 540L501 540L537 722Z"  horiz-adv-x="582" vert-adv-y="1000"  />

      
      <glyph glyph-name="uni013B" unicode="&#x013B;" d="M216 700L250 700L116 31L527 31L520 0L76 0L216 700M279-119Q292-119 300.50-127.50Q309-136 309-148Q309-157 306.50-163.50Q304-170 298-181L257-260L234-260L270-177Q261-174 255-166.50Q249-159 249-149Q249-137 257.50-128Q266-119 279-119Z"  horiz-adv-x="582" vert-adv-y="1000"  />

      
      <glyph glyph-name="uni013F" unicode="&#x013F;" d="M216 700L250 700L116 31L527 31L520 0L76 0L216 700M456 334Q443 334 434 343Q425 352 425 365Q425 379 434.50 388.50Q444 398 457 398Q470 398 479.50 389Q489 380 489 367Q489 353 479.50 343.50Q470 334 456 334Z"  horiz-adv-x="582" vert-adv-y="1000"  />

      
      <glyph glyph-name="uni1E36" unicode="&#x1E36;" d="M216 700L250 700L116 31L527 31L520 0L76 0L216 700M274-179Q262-179 254.50-170.50Q247-162 249-150Q250-137 260.50-128Q271-119 284-119Q296-119 303.50-127.50Q311-136 309-148Q308-161 297.50-170Q287-179 274-179Z"  horiz-adv-x="582" vert-adv-y="1000"  />

      
      <glyph glyph-name="uni01C8" unicode="&#x01C8;" d="M216 700L250 700L116 31L527 31L520 0L76 0L216 700M514-197Q482-197 455.50-188Q429-179 412-162L431-137Q465-168 516-168Q564-168 593-141.50Q622-115 634-57L749 519L782 519L666-61Q653-130 615-163.50Q577-197 514-197M797 655Q784 655 775.50 664Q767 673 767 685Q767 699 777 709.50Q787 720 801 720Q814 720 823 711Q832 702 832 690Q832 676 821.50 665.50Q811 655 797 655Z"  horiz-adv-x="842" vert-adv-y="1000"  />

      
      <glyph glyph-name="uni1E3A" unicode="&#x1E3A;" d="M216 700L250 700L116 31L527 31L520 0L76 0L216 700M141-135L422-135L417-162L136-162L141-135Z"  horiz-adv-x="582" vert-adv-y="1000"  />

      
      <glyph glyph-name="uni0141" unicode="&#x0141;" d="M217 700L251 700L117 31L528 31L521 0L77 0L217 700M42 297L335 487L349 464L57 275L42 297Z"  horiz-adv-x="583" vert-adv-y="1000"  />

      
      <glyph glyph-name="uni4d" unicode="&#x4d;" d="M915 700L775 0L742 0L867 627L460 97L443 97L236 634L109 0L76 0L216 700L244 700L458 142L885 700L915 700Z"  horiz-adv-x="956" vert-adv-y="1000"  />

      
      <glyph glyph-name="uni1E42" unicode="&#x1E42;" d="M915 700L775 0L742 0L867 627L460 97L443 97L236 634L109 0L76 0L216 700L244 700L458 142L885 700L915 700M391-179Q379-179 371.50-170.50Q364-162 366-150Q367-137 377.50-128Q388-119 401-119Q413-119 420.50-127.50Q428-136 426-148Q425-161 414.50-170Q404-179 391-179Z"  horiz-adv-x="956" vert-adv-y="1000"  />

      
      <glyph glyph-name="uni4e" unicode="&#x4e;" d="M775 700L635 0L607 0L238 645L110 0L76 0L216 700L244 700L613 55L741 700L775 700Z"  horiz-adv-x="815" vert-adv-y="1000"  />

      
      <glyph glyph-name="uni01CA" unicode="&#x01CA;" d="M775 700L635 0L607 0L238 645L110 0L76 0L216 700L244 700L613 55L741 700L775 700M956-4Q895-4 849.50 23Q804 50 783 96L810 115Q829 74 868 50.50Q907 27 959 27Q1029 27 1070.50 66.50Q1112 106 1130 199L1224 669L964 669L970 700L1264 700L1163 195Q1142 88 1092 42Q1042-4 956-4Z"  horiz-adv-x="1298" vert-adv-y="1000"  />

      
      <glyph glyph-name="uni0143" unicode="&#x0143;" d="M775 700L635 0L607 0L238 645L110 0L76 0L216 700L244 700L613 55L741 700L775 700M607 870L664 870L498 757L456 757L607 870Z"  horiz-adv-x="815" vert-adv-y="1000"  />

      
      <glyph glyph-name="uni0147" unicode="&#x0147;" d="M775 700L635 0L607 0L238 645L110 0L76 0L216 700L244 700L613 55L741 700L775 700M674 870L537 757L495 757L384 870L419 870L518 780L635 870L674 870Z"  horiz-adv-x="815" vert-adv-y="1000"  />

      
      <glyph glyph-name="uni0145" unicode="&#x0145;" d="M775 700L635 0L607 0L238 645L110 0L76 0L216 700L244 700L613 55L741 700L775 700M326-119Q339-119 347.50-127.50Q356-136 356-148Q356-157 353.50-163.50Q351-170 345-181L304-260L281-260L317-177Q308-174 302-166.50Q296-159 296-149Q296-137 304.50-128Q313-119 326-119Z"  horiz-adv-x="815" vert-adv-y="1000"  />

      
      <glyph glyph-name="uni1E44" unicode="&#x1E44;" d="M775 700L635 0L607 0L238 645L110 0L76 0L216 700L244 700L613 55L741 700L775 700M518 788Q506 788 497 796.50Q488 805 488 817Q488 831 498 841.50Q508 852 521 852Q533 852 542 843.50Q551 835 551 823Q551 809 541 798.50Q531 788 518 788Z"  horiz-adv-x="815" vert-adv-y="1000"  />

      
      <glyph glyph-name="uni1E46" unicode="&#x1E46;" d="M775 700L635 0L607 0L238 645L110 0L76 0L216 700L244 700L613 55L741 700L775 700M321-179Q309-179 301.50-170.50Q294-162 296-150Q297-137 307.50-128Q318-119 331-119Q343-119 350.50-127.50Q358-136 356-148Q355-161 344.50-170Q334-179 321-179Z"  horiz-adv-x="815" vert-adv-y="1000"  />

      
      <glyph glyph-name="uni014A" unicode="&#x014A;" d="M775 700L635 3Q614-105 564-151Q514-197 429-197Q370-197 324.50-171Q279-145 259-101L284-82Q303-122 341.50-144.50Q380-167 432-167Q501-167 542-127.50Q583-88 602 5L603 9L238 645L110 0L76 0L216 700L244 700L612 57L741 700L775 700Z"  horiz-adv-x="815" vert-adv-y="1000"  />

      
      <glyph glyph-name="uni01CB" unicode="&#x01CB;" d="M775 700L635 0L607 0L238 645L110 0L76 0L216 700L244 700L613 55L741 700L775 700M747-197Q715-197 688.50-188Q662-179 645-162L664-137Q698-168 749-168Q797-168 826-141.50Q855-115 867-57L982 519L1015 519L899-61Q886-130 848-163.50Q810-197 747-197M1030 655Q1017 655 1008.50 664Q1000 673 1000 685Q1000 699 1010 709.50Q1020 720 1034 720Q1047 720 1056 711Q1065 702 1065 690Q1065 676 1054.50 665.50Q1044 655 1030 655Z"  horiz-adv-x="1075" vert-adv-y="1000"  />

      
      <glyph glyph-name="uni1E48" unicode="&#x1E48;" d="M775 700L635 0L607 0L238 645L110 0L76 0L216 700L244 700L613 55L741 700L775 700M188-135L469-135L464-162L183-162L188-135Z"  horiz-adv-x="815" vert-adv-y="1000"  />

      
      <glyph glyph-name="unid1" unicode="&#xd1;" d="M775 700L635 0L607 0L238 645L110 0L76 0L216 700L244 700L613 55L741 700L775 700M582 767Q561 767 545.50 776.50Q530 786 510 805Q493 821 481.50 828.50Q470 836 455 836Q432 836 416 818Q400 800 395 770L370 770Q376 812 399 837Q422 862 456 862Q477 862 491.50 853Q506 844 527 825Q543 809 555 801Q567 793 582 793Q605 793 621 810.50Q637 828 642 857L667 857Q660 816 637.50 791.50Q615 767 582 767Z"  horiz-adv-x="815" vert-adv-y="1000"  />

      
      <glyph glyph-name="uni4f" unicode="&#x4f;" d="M387-4Q286-4 214.50 31.50Q143 67 106 131.50Q69 196 69 281Q69 395 120.50 492Q172 589 267 646.50Q362 704 487 704Q588 704 659 668.50Q730 633 767 568.50Q804 504 804 419Q804 305 753 208Q702 111 607 53.50Q512-4 387-4M390 27Q502 27 588.50 80Q675 133 722.50 222.50Q770 312 770 418Q770 535 696 604Q622 673 484 673Q371 673 284.50 620Q198 567 150.50 477.50Q103 388 103 282Q103 166 177.50 96.50Q252 27 390 27Z"  horiz-adv-x="837" vert-adv-y="1000"  />

      
      <glyph glyph-name="unid3" unicode="&#xd3;" d="M387-4Q286-4 214.50 31.50Q143 67 106 131.50Q69 196 69 281Q69 395 120.50 492Q172 589 267 646.50Q362 704 487 704Q588 704 659 668.50Q730 633 767 568.50Q804 504 804 419Q804 305 753 208Q702 111 607 53.50Q512-4 387-4M390 27Q502 27 588.50 80Q675 133 722.50 222.50Q770 312 770 418Q770 535 696 604Q622 673 484 673Q371 673 284.50 620Q198 567 150.50 477.50Q103 388 103 282Q103 166 177.50 96.50Q252 27 390 27M617 870L674 870L508 757L466 757L617 870Z"  horiz-adv-x="837" vert-adv-y="1000"  />

      
      <glyph glyph-name="uni014E" unicode="&#x014E;" d="M387-4Q286-4 214.50 31.50Q143 67 106 131.50Q69 196 69 281Q69 395 120.50 492Q172 589 267 646.50Q362 704 487 704Q588 704 659 668.50Q730 633 767 568.50Q804 504 804 419Q804 305 753 208Q702 111 607 53.50Q512-4 387-4M390 27Q502 27 588.50 80Q675 133 722.50 222.50Q770 312 770 418Q770 535 696 604Q622 673 484 673Q371 673 284.50 620Q198 567 150.50 477.50Q103 388 103 282Q103 166 177.50 96.50Q252 27 390 27M528 754Q470 754 433.50 786Q397 818 401 870L428 870Q425 829 453.50 804Q482 779 529 779Q575 779 609 803.50Q643 828 649 870L676 870Q668 817 626.50 785.50Q585 754 528 754Z"  horiz-adv-x="837" vert-adv-y="1000"  />

      
      <glyph glyph-name="unid4" unicode="&#xd4;" d="M387-4Q286-4 214.50 31.50Q143 67 106 131.50Q69 196 69 281Q69 395 120.50 492Q172 589 267 646.50Q362 704 487 704Q588 704 659 668.50Q730 633 767 568.50Q804 504 804 419Q804 305 753 208Q702 111 607 53.50Q512-4 387-4M390 27Q502 27 588.50 80Q675 133 722.50 222.50Q770 312 770 418Q770 535 696 604Q622 673 484 673Q371 673 284.50 620Q198 567 150.50 477.50Q103 388 103 282Q103 166 177.50 96.50Q252 27 390 27M627 757L528 847L411 757L372 757L509 870L551 870L662 757L627 757Z"  horiz-adv-x="837" vert-adv-y="1000"  />

      
      <glyph glyph-name="uni1ED0" unicode="&#x1ED0;" d="M387-4Q286-4 214.50 31.50Q143 67 106 131.50Q69 196 69 281Q69 395 120.50 492Q172 589 267 646.50Q362 704 487 704Q588 704 659 668.50Q730 633 767 568.50Q804 504 804 419Q804 305 753 208Q702 111 607 53.50Q512-4 387-4M390 27Q502 27 588.50 80Q675 133 722.50 222.50Q770 312 770 418Q770 535 696 604Q622 673 484 673Q371 673 284.50 620Q198 567 150.50 477.50Q103 388 103 282Q103 166 177.50 96.50Q252 27 390 27M624 757L527 819L414 757L373 757L508 840L548 840L663 757L624 757M732 936L786 936L635 834L595 834L732 936Z"  horiz-adv-x="837" vert-adv-y="1000"  />

      
      <glyph glyph-name="uni1ED8" unicode="&#x1ED8;" d="M387-4Q286-4 214.50 31.50Q143 67 106 131.50Q69 196 69 281Q69 395 120.50 492Q172 589 267 646.50Q362 704 487 704Q588 704 659 668.50Q730 633 767 568.50Q804 504 804 419Q804 305 753 208Q702 111 607 53.50Q512-4 387-4M390 27Q502 27 588.50 80Q675 133 722.50 222.50Q770 312 770 418Q770 535 696 604Q622 673 484 673Q371 673 284.50 620Q198 567 150.50 477.50Q103 388 103 282Q103 166 177.50 96.50Q252 27 390 27M331-179Q319-179 311.50-170.50Q304-162 306-150Q307-137 317.50-128Q328-119 341-119Q353-119 360.50-127.50Q368-136 366-148Q365-161 354.50-170Q344-179 331-179M627 757L528 847L411 757L372 757L509 870L551 870L662 757L627 757Z"  horiz-adv-x="837" vert-adv-y="1000"  />

      
      <glyph glyph-name="uni1ED2" unicode="&#x1ED2;" d="M387-4Q286-4 214.50 31.50Q143 67 106 131.50Q69 196 69 281Q69 395 120.50 492Q172 589 267 646.50Q362 704 487 704Q588 704 659 668.50Q730 633 767 568.50Q804 504 804 419Q804 305 753 208Q702 111 607 53.50Q512-4 387-4M390 27Q502 27 588.50 80Q675 133 722.50 222.50Q770 312 770 418Q770 535 696 604Q622 673 484 673Q371 673 284.50 620Q198 567 150.50 477.50Q103 388 103 282Q103 166 177.50 96.50Q252 27 390 27M624 757L527 819L414 757L373 757L508 840L548 840L663 757L624 757M537 936L589 936L694 834L656 834L537 936Z"  horiz-adv-x="837" vert-adv-y="1000"  />

      
      <glyph glyph-name="uni1ED4" unicode="&#x1ED4;" d="M387-4Q286-4 214.50 31.50Q143 67 106 131.50Q69 196 69 281Q69 395 120.50 492Q172 589 267 646.50Q362 704 487 704Q588 704 659 668.50Q730 633 767 568.50Q804 504 804 419Q804 305 753 208Q702 111 607 53.50Q512-4 387-4M390 27Q502 27 588.50 80Q675 133 722.50 222.50Q770 312 770 418Q770 535 696 604Q622 673 484 673Q371 673 284.50 620Q198 567 150.50 477.50Q103 388 103 282Q103 166 177.50 96.50Q252 27 390 27M624 757L527 819L414 757L373 757L508 840L548 840L663 757L624 757M621 837Q673 858 673 895Q673 909 663 918Q653 927 635 927Q612 927 590 914L583 934Q608 950 639 950Q666 950 681.50 936Q697 922 697 898Q697 846 633 819L621 837Z"  horiz-adv-x="837" vert-adv-y="1000"  />

      
      <glyph glyph-name="uni1ED6" unicode="&#x1ED6;" d="M387-4Q286-4 214.50 31.50Q143 67 106 131.50Q69 196 69 281Q69 395 120.50 492Q172 589 267 646.50Q362 704 487 704Q588 704 659 668.50Q730 633 767 568.50Q804 504 804 419Q804 305 753 208Q702 111 607 53.50Q512-4 387-4M390 27Q502 27 588.50 80Q675 133 722.50 222.50Q770 312 770 418Q770 535 696 604Q622 673 484 673Q371 673 284.50 620Q198 567 150.50 477.50Q103 388 103 282Q103 166 177.50 96.50Q252 27 390 27M624 757L527 819L414 757L373 757L508 840L548 840L663 757L624 757M608 874Q588 874 573.50 881.50Q559 889 541 904Q524 916 513.50 922Q503 928 490 928Q465 928 449 914.50Q433 901 428 877L403 877Q409 911 433 932Q457 953 489 953Q509 953 523.50 945.50Q538 938 557 923Q574 910 584 904.50Q594 899 607 899Q632 899 648.50 912.50Q665 926 670 949L694 949Q688 915 664.50 894.50Q641 874 608 874Z"  horiz-adv-x="837" vert-adv-y="1000"  />

      
      <glyph glyph-name="uni020C" unicode="&#x020C;" d="M387-4Q286-4 214.50 31.50Q143 67 106 131.50Q69 196 69 281Q69 395 120.50 492Q172 589 267 646.50Q362 704 487 704Q588 704 659 668.50Q730 633 767 568.50Q804 504 804 419Q804 305 753 208Q702 111 607 53.50Q512-4 387-4M390 27Q502 27 588.50 80Q675 133 722.50 222.50Q770 312 770 418Q770 535 696 604Q622 673 484 673Q371 673 284.50 620Q198 567 150.50 477.50Q103 388 103 282Q103 166 177.50 96.50Q252 27 390 27M333 870L377 870L462 757L427 757L333 870M478 870L523 870L607 757L572 757L478 870Z"  horiz-adv-x="837" vert-adv-y="1000"  />

      
      <glyph glyph-name="unid6" unicode="&#xd6;" d="M387-4Q286-4 214.50 31.50Q143 67 106 131.50Q69 196 69 281Q69 395 120.50 492Q172 589 267 646.50Q362 704 487 704Q588 704 659 668.50Q730 633 767 568.50Q804 504 804 419Q804 305 753 208Q702 111 607 53.50Q512-4 387-4M390 27Q502 27 588.50 80Q675 133 722.50 222.50Q770 312 770 418Q770 535 696 604Q622 673 484 673Q371 673 284.50 620Q198 567 150.50 477.50Q103 388 103 282Q103 166 177.50 96.50Q252 27 390 27M444 788Q432 788 423.50 796Q415 804 415 816Q415 830 424.50 839.50Q434 849 447 849Q458 849 467 840.50Q476 832 476 821Q476 808 466.50 798Q457 788 444 788M612 788Q600 788 591.50 796Q583 804 583 816Q583 830 592 839.50Q601 849 614 849Q626 849 634.50 840.50Q643 832 643 821Q643 807 634 797.50Q625 788 612 788Z"  horiz-adv-x="837" vert-adv-y="1000"  />

      
      <glyph glyph-name="uni022A" unicode="&#x022A;" d="M387-4Q286-4 214.50 31.50Q143 67 106 131.50Q69 196 69 281Q69 395 120.50 492Q172 589 267 646.50Q362 704 487 704Q588 704 659 668.50Q730 633 767 568.50Q804 504 804 419Q804 305 753 208Q702 111 607 53.50Q512-4 387-4M390 27Q502 27 588.50 80Q675 133 722.50 222.50Q770 312 770 418Q770 535 696 604Q622 673 484 673Q371 673 284.50 620Q198 567 150.50 477.50Q103 388 103 282Q103 166 177.50 96.50Q252 27 390 27M444 788Q433 788 424.50 796Q416 804 416 816Q416 829 425 838.50Q434 848 447 848Q459 848 467.50 840Q476 832 476 820Q476 807 466.50 797.50Q457 788 444 788M611 788Q600 788 591.50 796Q583 804 583 816Q583 829 592 838.50Q601 848 614 848Q626 848 634.50 840Q643 832 643 820Q643 807 633.50 797.50Q624 788 611 788M411 930L692 930L687 904L406 904L411 930Z"  horiz-adv-x="837" vert-adv-y="1000"  />

      
      <glyph glyph-name="uni0230" unicode="&#x0230;" d="M387-4Q286-4 214.50 31.50Q143 67 106 131.50Q69 196 69 281Q69 395 120.50 492Q172 589 267 646.50Q362 704 487 704Q588 704 659 668.50Q730 633 767 568.50Q804 504 804 419Q804 305 753 208Q702 111 607 53.50Q512-4 387-4M390 27Q502 27 588.50 80Q675 133 722.50 222.50Q770 312 770 418Q770 535 696 604Q622 673 484 673Q371 673 284.50 620Q198 567 150.50 477.50Q103 388 103 282Q103 166 177.50 96.50Q252 27 390 27M528 788Q516 788 507.50 796Q499 804 499 816Q499 830 508 839.50Q517 849 530 849Q542 849 550.50 840.50Q559 832 559 821Q559 807 550 797.50Q541 788 528 788M411 930L692 930L687 904L406 904L411 930Z"  horiz-adv-x="837" vert-adv-y="1000"  />

      
      <glyph glyph-name="uni1ECC" unicode="&#x1ECC;" d="M387-4Q286-4 214.50 31.50Q143 67 106 131.50Q69 196 69 281Q69 395 120.50 492Q172 589 267 646.50Q362 704 487 704Q588 704 659 668.50Q730 633 767 568.50Q804 504 804 419Q804 305 753 208Q702 111 607 53.50Q512-4 387-4M390 27Q502 27 588.50 80Q675 133 722.50 222.50Q770 312 770 418Q770 535 696 604Q622 673 484 673Q371 673 284.50 620Q198 567 150.50 477.50Q103 388 103 282Q103 166 177.50 96.50Q252 27 390 27M331-179Q319-179 311.50-170.50Q304-162 306-150Q307-137 317.50-128Q328-119 341-119Q353-119 360.50-127.50Q368-136 366-148Q365-161 354.50-170Q344-179 331-179Z"  horiz-adv-x="837" vert-adv-y="1000"  />

      
      <glyph glyph-name="unid2" unicode="&#xd2;" d="M387-4Q286-4 214.50 31.50Q143 67 106 131.50Q69 196 69 281Q69 395 120.50 492Q172 589 267 646.50Q362 704 487 704Q588 704 659 668.50Q730 633 767 568.50Q804 504 804 419Q804 305 753 208Q702 111 607 53.50Q512-4 387-4M390 27Q502 27 588.50 80Q675 133 722.50 222.50Q770 312 770 418Q770 535 696 604Q622 673 484 673Q371 673 284.50 620Q198 567 150.50 477.50Q103 388 103 282Q103 166 177.50 96.50Q252 27 390 27M396 870L450 870L567 757L527 757L396 870Z"  horiz-adv-x="837" vert-adv-y="1000"  />

      
      <glyph glyph-name="uni1ECE" unicode="&#x1ECE;" d="M387-4Q286-4 214.50 31.50Q143 67 106 131.50Q69 196 69 281Q69 395 120.50 492Q172 589 267 646.50Q362 704 487 704Q588 704 659 668.50Q730 633 767 568.50Q804 504 804 419Q804 305 753 208Q702 111 607 53.50Q512-4 387-4M390 27Q502 27 588.50 80Q675 133 722.50 222.50Q770 312 770 418Q770 535 696 604Q622 673 484 673Q371 673 284.50 620Q198 567 150.50 477.50Q103 388 103 282Q103 166 177.50 96.50Q252 27 390 27M517 772Q587 802 587 853Q587 875 572.50 887.50Q558 900 534 900Q504 900 472 881L463 902Q497 925 538 925Q573 925 594 907Q615 889 615 858Q615 823 594 797.50Q573 772 528 752L517 772Z"  horiz-adv-x="837" vert-adv-y="1000"  />

      
      <glyph glyph-name="uni01A0" unicode="&#x01A0;" d="M859 770Q859 718 823.50 689.50Q788 661 723 661Q689 661 663 664Q732 629 768 566Q804 503 804 419Q804 305 753 208Q702 111 607 53.50Q512-4 387-4Q286-4 214.50 31.50Q143 67 106 131.50Q69 196 69 281Q69 395 120.50 492Q172 589 267 646.50Q362 704 487 704Q545 704 621 696Q679 689 720 689Q773 689 801.50 710Q830 731 830 769Q830 801 810 836L836 846Q846 830 852.50 810Q859 790 859 770M770 418Q770 535 696 604Q622 673 484 673Q371 673 284.50 620Q198 567 150.50 477.50Q103 388 103 282Q103 166 177.50 96.50Q252 27 390 27Q502 27 588.50 80Q675 133 722.50 222.50Q770 312 770 418Z"  horiz-adv-x="837" vert-adv-y="1000"  />

      
      <glyph glyph-name="uni1EDA" unicode="&#x1EDA;" d="M859 770Q859 718 823.50 689.50Q788 661 723 661Q689 661 663 664Q732 629 768 566Q804 503 804 419Q804 305 753 208Q702 111 607 53.50Q512-4 387-4Q286-4 214.50 31.50Q143 67 106 131.50Q69 196 69 281Q69 395 120.50 492Q172 589 267 646.50Q362 704 487 704Q545 704 621 696Q679 689 720 689Q773 689 801.50 710Q830 731 830 769Q830 801 810 836L836 846Q846 830 852.50 810Q859 790 859 770M770 418Q770 535 696 604Q622 673 484 673Q371 673 284.50 620Q198 567 150.50 477.50Q103 388 103 282Q103 166 177.50 96.50Q252 27 390 27Q502 27 588.50 80Q675 133 722.50 222.50Q770 312 770 418M617 870L674 870L508 757L466 757L617 870Z"  horiz-adv-x="837" vert-adv-y="1000"  />

      
      <glyph glyph-name="uni1EE2" unicode="&#x1EE2;" d="M859 770Q859 718 823.50 689.50Q788 661 723 661Q689 661 663 664Q732 629 768 566Q804 503 804 419Q804 305 753 208Q702 111 607 53.50Q512-4 387-4Q286-4 214.50 31.50Q143 67 106 131.50Q69 196 69 281Q69 395 120.50 492Q172 589 267 646.50Q362 704 487 704Q545 704 621 696Q679 689 720 689Q773 689 801.50 710Q830 731 830 769Q830 801 810 836L836 846Q846 830 852.50 810Q859 790 859 770M770 418Q770 535 696 604Q622 673 484 673Q371 673 284.50 620Q198 567 150.50 477.50Q103 388 103 282Q103 166 177.50 96.50Q252 27 390 27Q502 27 588.50 80Q675 133 722.50 222.50Q770 312 770 418M331-179Q319-179 311.50-170.50Q304-162 306-150Q307-137 317.50-128Q328-119 341-119Q353-119 360.50-127.50Q368-136 366-148Q365-161 354.50-170Q344-179 331-179Z"  horiz-adv-x="837" vert-adv-y="1000"  />

      
      <glyph glyph-name="uni1EDC" unicode="&#x1EDC;" d="M859 770Q859 718 823.50 689.50Q788 661 723 661Q689 661 663 664Q732 629 768 566Q804 503 804 419Q804 305 753 208Q702 111 607 53.50Q512-4 387-4Q286-4 214.50 31.50Q143 67 106 131.50Q69 196 69 281Q69 395 120.50 492Q172 589 267 646.50Q362 704 487 704Q545 704 621 696Q679 689 720 689Q773 689 801.50 710Q830 731 830 769Q830 801 810 836L836 846Q846 830 852.50 810Q859 790 859 770M770 418Q770 535 696 604Q622 673 484 673Q371 673 284.50 620Q198 567 150.50 477.50Q103 388 103 282Q103 166 177.50 96.50Q252 27 390 27Q502 27 588.50 80Q675 133 722.50 222.50Q770 312 770 418M396 870L450 870L567 757L527 757L396 870Z"  horiz-adv-x="837" vert-adv-y="1000"  />

      
      <glyph glyph-name="uni1EDE" unicode="&#x1EDE;" d="M859 770Q859 718 823.50 689.50Q788 661 723 661Q689 661 663 664Q732 629 768 566Q804 503 804 419Q804 305 753 208Q702 111 607 53.50Q512-4 387-4Q286-4 214.50 31.50Q143 67 106 131.50Q69 196 69 281Q69 395 120.50 492Q172 589 267 646.50Q362 704 487 704Q545 704 621 696Q679 689 720 689Q773 689 801.50 710Q830 731 830 769Q830 801 810 836L836 846Q846 830 852.50 810Q859 790 859 770M770 418Q770 535 696 604Q622 673 484 673Q371 673 284.50 620Q198 567 150.50 477.50Q103 388 103 282Q103 166 177.50 96.50Q252 27 390 27Q502 27 588.50 80Q675 133 722.50 222.50Q770 312 770 418M517 772Q587 802 587 853Q587 875 572.50 887.50Q558 900 534 900Q504 900 472 881L463 902Q497 925 538 925Q573 925 594 907Q615 889 615 858Q615 823 594 797.50Q573 772 528 752L517 772Z"  horiz-adv-x="837" vert-adv-y="1000"  />

      
      <glyph glyph-name="uni1EE0" unicode="&#x1EE0;" d="M859 770Q859 718 823.50 689.50Q788 661 723 661Q689 661 663 664Q732 629 768 566Q804 503 804 419Q804 305 753 208Q702 111 607 53.50Q512-4 387-4Q286-4 214.50 31.50Q143 67 106 131.50Q69 196 69 281Q69 395 120.50 492Q172 589 267 646.50Q362 704 487 704Q545 704 621 696Q679 689 720 689Q773 689 801.50 710Q830 731 830 769Q830 801 810 836L836 846Q846 830 852.50 810Q859 790 859 770M770 418Q770 535 696 604Q622 673 484 673Q371 673 284.50 620Q198 567 150.50 477.50Q103 388 103 282Q103 166 177.50 96.50Q252 27 390 27Q502 27 588.50 80Q675 133 722.50 222.50Q770 312 770 418M592 767Q571 767 555.50 776.50Q540 786 520 805Q503 821 491.50 828.50Q480 836 465 836Q442 836 426 818Q410 800 405 770L380 770Q386 812 409 837Q432 862 466 862Q487 862 501.50 853Q516 844 537 825Q553 809 565 801Q577 793 592 793Q615 793 631 810.50Q647 828 652 857L677 857Q670 816 647.50 791.50Q625 767 592 767Z"  horiz-adv-x="837" vert-adv-y="1000"  />

      
      <glyph glyph-name="uni0150" unicode="&#x0150;" d="M387-4Q286-4 214.50 31.50Q143 67 106 131.50Q69 196 69 281Q69 395 120.50 492Q172 589 267 646.50Q362 704 487 704Q588 704 659 668.50Q730 633 767 568.50Q804 504 804 419Q804 305 753 208Q702 111 607 53.50Q512-4 387-4M390 27Q502 27 588.50 80Q675 133 722.50 222.50Q770 312 770 418Q770 535 696 604Q622 673 484 673Q371 673 284.50 620Q198 567 150.50 477.50Q103 388 103 282Q103 166 177.50 96.50Q252 27 390 27M545 870L593 870L464 757L425 757L545 870M690 870L738 870L609 757L570 757L690 870Z"  horiz-adv-x="837" vert-adv-y="1000"  />

      
      <glyph glyph-name="uni020E" unicode="&#x020E;" d="M387-4Q286-4 214.50 31.50Q143 67 106 131.50Q69 196 69 281Q69 395 120.50 492Q172 589 267 646.50Q362 704 487 704Q588 704 659 668.50Q730 633 767 568.50Q804 504 804 419Q804 305 753 208Q702 111 607 53.50Q512-4 387-4M390 27Q502 27 588.50 80Q675 133 722.50 222.50Q770 312 770 418Q770 535 696 604Q622 673 484 673Q371 673 284.50 620Q198 567 150.50 477.50Q103 388 103 282Q103 166 177.50 96.50Q252 27 390 27M380 757Q388 810 429.50 842Q471 874 528 874Q585 874 621.50 841.50Q658 809 654 757L627 757Q630 799 602 824Q574 849 526 849Q481 849 447 824Q413 799 407 757L380 757Z"  horiz-adv-x="837" vert-adv-y="1000"  />

      
      <glyph glyph-name="uni014C" unicode="&#x014C;" d="M387-4Q286-4 214.50 31.50Q143 67 106 131.50Q69 196 69 281Q69 395 120.50 492Q172 589 267 646.50Q362 704 487 704Q588 704 659 668.50Q730 633 767 568.50Q804 504 804 419Q804 305 753 208Q702 111 607 53.50Q512-4 387-4M390 27Q502 27 588.50 80Q675 133 722.50 222.50Q770 312 770 418Q770 535 696 604Q622 673 484 673Q371 673 284.50 620Q198 567 150.50 477.50Q103 388 103 282Q103 166 177.50 96.50Q252 27 390 27M390 827L671 827L666 800L385 800L390 827Z"  horiz-adv-x="837" vert-adv-y="1000"  />

      
      <glyph glyph-name="uni1E52" unicode="&#x1E52;" d="M387-4Q286-4 214.50 31.50Q143 67 106 131.50Q69 196 69 281Q69 395 120.50 492Q172 589 267 646.50Q362 704 487 704Q588 704 659 668.50Q730 633 767 568.50Q804 504 804 419Q804 305 753 208Q702 111 607 53.50Q512-4 387-4M390 27Q502 27 588.50 80Q675 133 722.50 222.50Q770 312 770 418Q770 535 696 604Q622 673 484 673Q371 673 284.50 620Q198 567 150.50 477.50Q103 388 103 282Q103 166 177.50 96.50Q252 27 390 27M387 812L668 812L663 786L382 786L387 812M628 977L682 977L531 875L491 875L628 977Z"  horiz-adv-x="837" vert-adv-y="1000"  />

      
      <glyph glyph-name="uni1E50" unicode="&#x1E50;" d="M387-4Q286-4 214.50 31.50Q143 67 106 131.50Q69 196 69 281Q69 395 120.50 492Q172 589 267 646.50Q362 704 487 704Q588 704 659 668.50Q730 633 767 568.50Q804 504 804 419Q804 305 753 208Q702 111 607 53.50Q512-4 387-4M390 27Q502 27 588.50 80Q675 133 722.50 222.50Q770 312 770 418Q770 535 696 604Q622 673 484 673Q371 673 284.50 620Q198 567 150.50 477.50Q103 388 103 282Q103 166 177.50 96.50Q252 27 390 27M387 812L668 812L663 786L382 786L387 812M433 977L485 977L590 875L552 875L433 977Z"  horiz-adv-x="837" vert-adv-y="1000"  />

      
      <glyph glyph-name="uni01EA" unicode="&#x01EA;" d="M487 704Q588 704 659 668.50Q730 633 767 568.50Q804 504 804 419Q804 318 763.50 230Q723 142 648 82Q573 22 472 4Q370-15 319.50-55Q269-95 269-139Q269-164 284-177Q299-190 325-190Q363-190 395-166L404-188Q368-215 320-215Q284-215 262-195.50Q240-176 240-143Q240-102 270.50-66Q301-30 363-3Q270 1 203.50 37.50Q137 74 103 136.50Q69 199 69 281Q69 395 120.50 492Q172 589 267 646.50Q362 704 487 704M390 27Q502 27 588.50 80Q675 133 722.50 222.50Q770 312 770 418Q770 535 696 604Q622 673 484 673Q371 673 284.50 620Q198 567 150.50 477.50Q103 388 103 282Q103 166 177.50 96.50Q252 27 390 27Z"  horiz-adv-x="837" vert-adv-y="1000"  />

      
      <glyph glyph-name="unid8" unicode="&#xd8;" d="M387-4Q286-4 214.50 31.50Q143 67 106 131.50Q69 196 69 281Q69 395 120.50 492Q172 589 267 646.50Q362 704 487 704Q588 704 659 668.50Q730 633 767 568.50Q804 504 804 419Q804 305 753 208Q702 111 607 53.50Q512-4 387-4M390 27Q502 27 588.50 80Q675 133 722.50 222.50Q770 312 770 418Q770 535 696 604Q622 673 484 673Q371 673 284.50 620Q198 567 150.50 477.50Q103 388 103 282Q103 166 177.50 96.50Q252 27 390 27M808 770L842 770L63-70L29-70L808 770Z"  horiz-adv-x="837" vert-adv-y="1000"  />

      
      <glyph glyph-name="uni01FE" unicode="&#x01FE;" d="M387-4Q286-4 214.50 31.50Q143 67 106 131.50Q69 196 69 281Q69 395 120.50 492Q172 589 267 646.50Q362 704 487 704Q588 704 659 668.50Q730 633 767 568.50Q804 504 804 419Q804 305 753 208Q702 111 607 53.50Q512-4 387-4M390 27Q502 27 588.50 80Q675 133 722.50 222.50Q770 312 770 418Q770 535 696 604Q622 673 484 673Q371 673 284.50 620Q198 567 150.50 477.50Q103 388 103 282Q103 166 177.50 96.50Q252 27 390 27M808 770L842 770L63-70L29-70L808 770M617 870L674 870L508 757L466 757L617 870Z"  horiz-adv-x="837" vert-adv-y="1000"  />

      
      <glyph glyph-name="unid5" unicode="&#xd5;" d="M387-4Q286-4 214.50 31.50Q143 67 106 131.50Q69 196 69 281Q69 395 120.50 492Q172 589 267 646.50Q362 704 487 704Q588 704 659 668.50Q730 633 767 568.50Q804 504 804 419Q804 305 753 208Q702 111 607 53.50Q512-4 387-4M390 27Q502 27 588.50 80Q675 133 722.50 222.50Q770 312 770 418Q770 535 696 604Q622 673 484 673Q371 673 284.50 620Q198 567 150.50 477.50Q103 388 103 282Q103 166 177.50 96.50Q252 27 390 27M592 767Q571 767 555.50 776.50Q540 786 520 805Q503 821 491.50 828.50Q480 836 465 836Q442 836 426 818Q410 800 405 770L380 770Q386 812 409 837Q432 862 466 862Q487 862 501.50 853Q516 844 537 825Q553 809 565 801Q577 793 592 793Q615 793 631 810.50Q647 828 652 857L677 857Q670 816 647.50 791.50Q625 767 592 767Z"  horiz-adv-x="837" vert-adv-y="1000"  />

      
      <glyph glyph-name="uni1E4C" unicode="&#x1E4C;" d="M387-4Q286-4 214.50 31.50Q143 67 106 131.50Q69 196 69 281Q69 395 120.50 492Q172 589 267 646.50Q362 704 487 704Q588 704 659 668.50Q730 633 767 568.50Q804 504 804 419Q804 305 753 208Q702 111 607 53.50Q512-4 387-4M390 27Q502 27 588.50 80Q675 133 722.50 222.50Q770 312 770 418Q770 535 696 604Q622 673 484 673Q371 673 284.50 620Q198 567 150.50 477.50Q103 388 103 282Q103 166 177.50 96.50Q252 27 390 27M587 770Q567 770 552.50 777.50Q538 785 520 800Q503 812 492.50 818Q482 824 469 824Q444 824 428 810.50Q412 797 407 773L382 773Q388 807 412 828Q436 849 468 849Q488 849 502.50 841.50Q517 834 536 819Q553 806 563 800.50Q573 795 586 795Q611 795 627.50 808.50Q644 822 649 845L673 845Q667 811 643.50 790.50Q620 770 587 770M628 977L682 977L531 875L491 875L628 977Z"  horiz-adv-x="837" vert-adv-y="1000"  />

      
      <glyph glyph-name="uni1E4E" unicode="&#x1E4E;" d="M387-4Q286-4 214.50 31.50Q143 67 106 131.50Q69 196 69 281Q69 395 120.50 492Q172 589 267 646.50Q362 704 487 704Q588 704 659 668.50Q730 633 767 568.50Q804 504 804 419Q804 305 753 208Q702 111 607 53.50Q512-4 387-4M390 27Q502 27 588.50 80Q675 133 722.50 222.50Q770 312 770 418Q770 535 696 604Q622 673 484 673Q371 673 284.50 620Q198 567 150.50 477.50Q103 388 103 282Q103 166 177.50 96.50Q252 27 390 27M587 770Q567 770 552.50 777.50Q538 785 520 800Q503 812 492.50 818Q482 824 469 824Q444 824 428 810.50Q412 797 407 773L382 773Q388 807 412 828Q436 849 468 849Q488 849 502.50 841.50Q517 834 536 819Q553 806 563 800.50Q573 795 586 795Q611 795 627.50 808.50Q644 822 649 845L673 845Q667 811 643.50 790.50Q620 770 587 770M468 906Q457 906 448.50 914Q440 922 440 934Q440 947 449 956.50Q458 966 471 966Q483 966 491.50 958Q500 950 500 938Q500 925 490.50 915.50Q481 906 468 906M635 906Q624 906 615.50 914Q607 922 607 934Q607 947 616 956.50Q625 966 638 966Q650 966 658.50 958Q667 950 667 938Q667 925 657.50 915.50Q648 906 635 906Z"  horiz-adv-x="837" vert-adv-y="1000"  />

      
      <glyph glyph-name="uni022C" unicode="&#x022C;" d="M387-4Q286-4 214.50 31.50Q143 67 106 131.50Q69 196 69 281Q69 395 120.50 492Q172 589 267 646.50Q362 704 487 704Q588 704 659 668.50Q730 633 767 568.50Q804 504 804 419Q804 305 753 208Q702 111 607 53.50Q512-4 387-4M390 27Q502 27 588.50 80Q675 133 722.50 222.50Q770 312 770 418Q770 535 696 604Q622 673 484 673Q371 673 284.50 620Q198 567 150.50 477.50Q103 388 103 282Q103 166 177.50 96.50Q252 27 390 27M587 770Q567 770 552.50 777.50Q538 785 520 800Q503 812 492.50 818Q482 824 469 824Q444 824 428 810.50Q412 797 407 773L382 773Q388 807 412 828Q436 849 468 849Q488 849 502.50 841.50Q517 834 536 819Q553 806 563 800.50Q573 795 586 795Q611 795 627.50 808.50Q644 822 649 845L673 845Q667 811 643.50 790.50Q620 770 587 770M411 930L692 930L687 904L406 904L411 930Z"  horiz-adv-x="837" vert-adv-y="1000"  />

      
      <glyph glyph-name="uni0152" unicode="&#x0152;" d="M689 669L630 371L1010 371L1004 340L624 340L562 31L1002 31L995 0L392 0Q289 0 216.50 35Q144 70 106.50 133.50Q69 197 69 281Q69 403 122.50 498Q176 593 275 646.50Q374 700 505 700L1120 700L1114 669L689 669M656 669L503 669Q383 669 292 619.50Q201 570 152 482Q103 394 103 282Q103 166 178 98.50Q253 31 396 31L528 31L656 669Z"  horiz-adv-x="1114" vert-adv-y="1000"  />

      
      <glyph glyph-name="uni50" unicode="&#x50;" d="M455 700Q569 700 631 651Q693 602 693 511Q693 378 608.50 306.50Q524 235 374 235L157 235L110 0L76 0L216 700L455 700M374 266Q511 266 585.50 328Q660 390 660 509Q660 586 606.50 627.50Q553 669 455 669L244 669L163 266L374 266Z"  horiz-adv-x="712" vert-adv-y="1000"  />

      
      <glyph glyph-name="unide" unicode="&#xde;" d="M436 601Q550 601 612 552Q674 503 674 412Q674 280 589 208.50Q504 137 355 137L137 137L110 0L76 0L216 700L250 700L230 601L436 601M354 167Q492 167 566 229Q640 291 640 411Q640 488 587 529.50Q534 571 435 571L224 571L143 167L354 167Z"  horiz-adv-x="712" vert-adv-y="1000"  />

      
      <glyph glyph-name="uni51" unicode="&#x51;" d="M586-99Q629-99 665.50-82Q702-65 729-31L748-52Q717-89 674.50-108.50Q632-128 585-128Q524-128 472.50-96.50Q421-65 375-4Q278-2 209 34Q140 70 104.50 133.50Q69 197 69 281Q69 395 120.50 492Q172 589 267 646.50Q362 704 487 704Q588 704 659 668.50Q730 633 767 568.50Q804 504 804 419Q804 310 757 216.50Q710 123 623 64Q536 5 420-3Q455-51 496-75Q537-99 586-99M103 282Q103 166 177.50 96.50Q252 27 390 27Q502 27 588.50 80Q675 133 722.50 222.50Q770 312 770 418Q770 535 696 604Q622 673 484 673Q371 673 284.50 620Q198 567 150.50 477.50Q103 388 103 282Z"  horiz-adv-x="837" vert-adv-y="1000"  />

      
      <glyph glyph-name="uni52" unicode="&#x52;" d="M694 511Q694 401 635 333Q576 265 469 244L607 0L570 0L434 239Q405 236 375 236L157 236L110 0L76 0L216 700L456 700Q569 700 631.50 650.50Q694 601 694 511M374 266Q511 266 585.50 328Q660 390 660 509Q660 586 607 627.50Q554 669 455 669L244 669L163 266L374 266Z"  horiz-adv-x="718" vert-adv-y="1000"  />

      
      <glyph glyph-name="uni0154" unicode="&#x0154;" d="M694 511Q694 401 635 333Q576 265 469 244L607 0L570 0L434 239Q405 236 375 236L157 236L110 0L76 0L216 700L456 700Q569 700 631.50 650.50Q694 601 694 511M374 266Q511 266 585.50 328Q660 390 660 509Q660 586 607 627.50Q554 669 455 669L244 669L163 266L374 266M566 870L623 870L457 757L415 757L566 870Z"  horiz-adv-x="718" vert-adv-y="1000"  />

      
      <glyph glyph-name="uni0158" unicode="&#x0158;" d="M694 511Q694 401 635 333Q576 265 469 244L607 0L570 0L434 239Q405 236 375 236L157 236L110 0L76 0L216 700L456 700Q569 700 631.50 650.50Q694 601 694 511M374 266Q511 266 585.50 328Q660 390 660 509Q660 586 607 627.50Q554 669 455 669L244 669L163 266L374 266M633 870L496 757L454 757L343 870L378 870L477 780L594 870L633 870Z"  horiz-adv-x="718" vert-adv-y="1000"  />

      
      <glyph glyph-name="uni0156" unicode="&#x0156;" d="M694 511Q694 401 635 333Q576 265 469 244L607 0L570 0L434 239Q405 236 375 236L157 236L110 0L76 0L216 700L456 700Q569 700 631.50 650.50Q694 601 694 511M374 266Q511 266 585.50 328Q660 390 660 509Q660 586 607 627.50Q554 669 455 669L244 669L163 266L374 266M285-119Q298-119 306.50-127.50Q315-136 315-148Q315-157 312.50-163.50Q310-170 304-181L263-260L240-260L276-177Q267-174 261-166.50Q255-159 255-149Q255-137 263.50-128Q272-119 285-119Z"  horiz-adv-x="718" vert-adv-y="1000"  />

      
      <glyph glyph-name="uni0210" unicode="&#x0210;" d="M694 511Q694 401 635 333Q576 265 469 244L607 0L570 0L434 239Q405 236 375 236L157 236L110 0L76 0L216 700L456 700Q569 700 631.50 650.50Q694 601 694 511M374 266Q511 266 585.50 328Q660 390 660 509Q660 586 607 627.50Q554 669 455 669L244 669L163 266L374 266M282 870L326 870L411 757L376 757L282 870M427 870L472 870L556 757L521 757L427 870Z"  horiz-adv-x="718" vert-adv-y="1000"  />

      
      <glyph glyph-name="uni1E5A" unicode="&#x1E5A;" d="M694 511Q694 401 635 333Q576 265 469 244L607 0L570 0L434 239Q405 236 375 236L157 236L110 0L76 0L216 700L456 700Q569 700 631.50 650.50Q694 601 694 511M374 266Q511 266 585.50 328Q660 390 660 509Q660 586 607 627.50Q554 669 455 669L244 669L163 266L374 266M280-179Q268-179 260.50-170.50Q253-162 255-150Q256-137 266.50-128Q277-119 290-119Q302-119 309.50-127.50Q317-136 315-148Q314-161 303.50-170Q293-179 280-179Z"  horiz-adv-x="718" vert-adv-y="1000"  />

      
      <glyph glyph-name="uni0212" unicode="&#x0212;" d="M694 511Q694 401 635 333Q576 265 469 244L607 0L570 0L434 239Q405 236 375 236L157 236L110 0L76 0L216 700L456 700Q569 700 631.50 650.50Q694 601 694 511M374 266Q511 266 585.50 328Q660 390 660 509Q660 586 607 627.50Q554 669 455 669L244 669L163 266L374 266M329 757Q337 810 378.50 842Q420 874 477 874Q534 874 570.50 841.50Q607 809 603 757L576 757Q579 799 551 824Q523 849 475 849Q430 849 396 824Q362 799 356 757L329 757Z"  horiz-adv-x="718" vert-adv-y="1000"  />

      
      <glyph glyph-name="uni1E5E" unicode="&#x1E5E;" d="M694 511Q694 401 635 333Q576 265 469 244L607 0L570 0L434 239Q405 236 375 236L157 236L110 0L76 0L216 700L456 700Q569 700 631.50 650.50Q694 601 694 511M374 266Q511 266 585.50 328Q660 390 660 509Q660 586 607 627.50Q554 669 455 669L244 669L163 266L374 266M147-135L428-135L423-162L142-162L147-135Z"  horiz-adv-x="718" vert-adv-y="1000"  />

      
      <glyph glyph-name="uni53" unicode="&#x53;" d="M264-4Q189-4 121 23.50Q53 51 23 92L43 116Q73 77 136 51.50Q199 26 266 26Q371 26 435.50 70.50Q500 115 500 194Q500 235 476.50 261Q453 287 418 301.50Q383 316 324 333Q259 352 220 368.50Q181 385 154 417Q127 449 127 501Q127 597 200 650.50Q273 704 390 704Q449 704 503.50 688Q558 672 596 642L578 614Q541 643 492 658.50Q443 674 389 674Q287 674 223.50 628.50Q160 583 159 504Q159 462 183 435.50Q207 409 241.50 394.50Q276 380 337 362Q401 344 440 327.50Q479 311 506 279.50Q533 248 533 198Q533 102 457.50 49Q382-4 264-4Z"  horiz-adv-x="604" vert-adv-y="1000"  />

      
      <glyph glyph-name="uni015A" unicode="&#x015A;" d="M264-4Q189-4 121 23.50Q53 51 23 92L43 116Q73 77 136 51.50Q199 26 266 26Q371 26 435.50 70.50Q500 115 500 194Q500 235 476.50 261Q453 287 418 301.50Q383 316 324 333Q259 352 220 368.50Q181 385 154 417Q127 449 127 501Q127 597 200 650.50Q273 704 390 704Q449 704 503.50 688Q558 672 596 642L578 614Q541 643 492 658.50Q443 674 389 674Q287 674 223.50 628.50Q160 583 159 504Q159 462 183 435.50Q207 409 241.50 394.50Q276 380 337 362Q401 344 440 327.50Q479 311 506 279.50Q533 248 533 198Q533 102 457.50 49Q382-4 264-4M517 870L574 870L408 757L366 757L517 870Z"  horiz-adv-x="604" vert-adv-y="1000"  />

      
      <glyph glyph-name="uni1E64" unicode="&#x1E64;" d="M264-4Q189-4 121 23.50Q53 51 23 92L43 116Q73 77 136 51.50Q199 26 266 26Q371 26 435.50 70.50Q500 115 500 194Q500 235 476.50 261Q453 287 418 301.50Q383 316 324 333Q259 352 220 368.50Q181 385 154 417Q127 449 127 501Q127 597 200 650.50Q273 704 390 704Q449 704 503.50 688Q558 672 596 642L578 614Q541 643 492 658.50Q443 674 389 674Q287 674 223.50 628.50Q160 583 159 504Q159 462 183 435.50Q207 409 241.50 394.50Q276 380 337 362Q401 344 440 327.50Q479 311 506 279.50Q533 248 533 198Q533 102 457.50 49Q382-4 264-4M504 859L558 859L407 757L367 757L504 859M452 906Q440 906 431.50 914Q423 922 423 934Q423 948 432 957.50Q441 967 454 967Q466 967 474.50 958.50Q483 950 483 939Q483 925 474 915.50Q465 906 452 906Z"  horiz-adv-x="604" vert-adv-y="1000"  />

      
      <glyph glyph-name="uniA78B" unicode="&#xA78B;" d="M179 699L213 699L131 298L99 298L179 699Z"  horiz-adv-x="217" vert-adv-y="1000"  />

      
      <glyph glyph-name="uni0160" unicode="&#x0160;" d="M264-4Q189-4 121 23.50Q53 51 23 92L43 116Q73 77 136 51.50Q199 26 266 26Q371 26 435.50 70.50Q500 115 500 194Q500 235 476.50 261Q453 287 418 301.50Q383 316 324 333Q259 352 220 368.50Q181 385 154 417Q127 449 127 501Q127 597 200 650.50Q273 704 390 704Q449 704 503.50 688Q558 672 596 642L578 614Q541 643 492 658.50Q443 674 389 674Q287 674 223.50 628.50Q160 583 159 504Q159 462 183 435.50Q207 409 241.50 394.50Q276 380 337 362Q401 344 440 327.50Q479 311 506 279.50Q533 248 533 198Q533 102 457.50 49Q382-4 264-4M584 870L447 757L405 757L294 870L329 870L428 780L545 870L584 870Z"  horiz-adv-x="604" vert-adv-y="1000"  />

      
      <glyph glyph-name="uni1E66" unicode="&#x1E66;" d="M264-4Q189-4 121 23.50Q53 51 23 92L43 116Q73 77 136 51.50Q199 26 266 26Q371 26 435.50 70.50Q500 115 500 194Q500 235 476.50 261Q453 287 418 301.50Q383 316 324 333Q259 352 220 368.50Q181 385 154 417Q127 449 127 501Q127 597 200 650.50Q273 704 390 704Q449 704 503.50 688Q558 672 596 642L578 614Q541 643 492 658.50Q443 674 389 674Q287 674 223.50 628.50Q160 583 159 504Q159 462 183 435.50Q207 409 241.50 394.50Q276 380 337 362Q401 344 440 327.50Q479 311 506 279.50Q533 248 533 198Q533 102 457.50 49Q382-4 264-4M579 840L443 757L403 757L289 840L328 840L424 777L538 840L579 840M447 883Q435 883 426.50 891Q418 899 418 911Q418 925 427 934.50Q436 944 449 944Q461 944 469.50 935.50Q478 927 478 916Q478 902 469 892.50Q460 883 447 883Z"  horiz-adv-x="604" vert-adv-y="1000"  />

      
      <glyph glyph-name="uni015E" unicode="&#x015E;" d="M264-4Q189-4 121 23.50Q53 51 23 92L43 116Q73 77 136 51.50Q199 26 266 26Q371 26 435.50 70.50Q500 115 500 194Q500 235 476.50 261Q453 287 418 301.50Q383 316 324 333Q259 352 220 368.50Q181 385 154 417Q127 449 127 501Q127 597 200 650.50Q273 704 390 704Q449 704 503.50 688Q558 672 596 642L578 614Q541 643 492 658.50Q443 674 389 674Q287 674 223.50 628.50Q160 583 159 504Q159 462 183 435.50Q207 409 241.50 394.50Q276 380 337 362Q401 344 440 327.50Q479 311 506 279.50Q533 248 533 198Q533 102 457.50 49Q382-4 264-4M214-215Q164-215 135-189L151-168Q178-190 216-190Q250-190 270.50-172Q291-154 291-124Q291-102 275-89.50Q259-77 231-77L215-77L254 5L279 5L251-55Q283-58 301.50-76.50Q320-95 320-124Q320-163 290.50-189Q261-215 214-215Z"  horiz-adv-x="604" vert-adv-y="1000"  />

      
      <glyph glyph-name="uni015C" unicode="&#x015C;" d="M264-4Q189-4 121 23.50Q53 51 23 92L43 116Q73 77 136 51.50Q199 26 266 26Q371 26 435.50 70.50Q500 115 500 194Q500 235 476.50 261Q453 287 418 301.50Q383 316 324 333Q259 352 220 368.50Q181 385 154 417Q127 449 127 501Q127 597 200 650.50Q273 704 390 704Q449 704 503.50 688Q558 672 596 642L578 614Q541 643 492 658.50Q443 674 389 674Q287 674 223.50 628.50Q160 583 159 504Q159 462 183 435.50Q207 409 241.50 394.50Q276 380 337 362Q401 344 440 327.50Q479 311 506 279.50Q533 248 533 198Q533 102 457.50 49Q382-4 264-4M527 757L428 847L311 757L272 757L409 870L451 870L562 757L527 757Z"  horiz-adv-x="604" vert-adv-y="1000"  />

      
      <glyph glyph-name="uni0218" unicode="&#x0218;" d="M264-4Q189-4 121 23.50Q53 51 23 92L43 116Q73 77 136 51.50Q199 26 266 26Q371 26 435.50 70.50Q500 115 500 194Q500 235 476.50 261Q453 287 418 301.50Q383 316 324 333Q259 352 220 368.50Q181 385 154 417Q127 449 127 501Q127 597 200 650.50Q273 704 390 704Q449 704 503.50 688Q558 672 596 642L578 614Q541 643 492 658.50Q443 674 389 674Q287 674 223.50 628.50Q160 583 159 504Q159 462 183 435.50Q207 409 241.50 394.50Q276 380 337 362Q401 344 440 327.50Q479 311 506 279.50Q533 248 533 198Q533 102 457.50 49Q382-4 264-4M236-119Q249-119 257.50-127.50Q266-136 266-148Q266-157 263.50-163.50Q261-170 255-181L214-260L191-260L227-177Q218-174 212-166.50Q206-159 206-149Q206-137 214.50-128Q223-119 236-119Z"  horiz-adv-x="604" vert-adv-y="1000"  />

      
      <glyph glyph-name="uni1E60" unicode="&#x1E60;" d="M264-4Q189-4 121 23.50Q53 51 23 92L43 116Q73 77 136 51.50Q199 26 266 26Q371 26 435.50 70.50Q500 115 500 194Q500 235 476.50 261Q453 287 418 301.50Q383 316 324 333Q259 352 220 368.50Q181 385 154 417Q127 449 127 501Q127 597 200 650.50Q273 704 390 704Q449 704 503.50 688Q558 672 596 642L578 614Q541 643 492 658.50Q443 674 389 674Q287 674 223.50 628.50Q160 583 159 504Q159 462 183 435.50Q207 409 241.50 394.50Q276 380 337 362Q401 344 440 327.50Q479 311 506 279.50Q533 248 533 198Q533 102 457.50 49Q382-4 264-4M428 788Q416 788 407 796.50Q398 805 398 817Q398 831 408 841.50Q418 852 431 852Q443 852 452 843.50Q461 835 461 823Q461 809 451 798.50Q441 788 428 788Z"  horiz-adv-x="604" vert-adv-y="1000"  />

      
      <glyph glyph-name="uni1E62" unicode="&#x1E62;" d="M264-4Q189-4 121 23.50Q53 51 23 92L43 116Q73 77 136 51.50Q199 26 266 26Q371 26 435.50 70.50Q500 115 500 194Q500 235 476.50 261Q453 287 418 301.50Q383 316 324 333Q259 352 220 368.50Q181 385 154 417Q127 449 127 501Q127 597 200 650.50Q273 704 390 704Q449 704 503.50 688Q558 672 596 642L578 614Q541 643 492 658.50Q443 674 389 674Q287 674 223.50 628.50Q160 583 159 504Q159 462 183 435.50Q207 409 241.50 394.50Q276 380 337 362Q401 344 440 327.50Q479 311 506 279.50Q533 248 533 198Q533 102 457.50 49Q382-4 264-4M231-179Q219-179 211.50-170.50Q204-162 206-150Q207-137 217.50-128Q228-119 241-119Q253-119 260.50-127.50Q268-136 266-148Q265-161 254.50-170Q244-179 231-179Z"  horiz-adv-x="604" vert-adv-y="1000"  />

      
      <glyph glyph-name="uni1E68" unicode="&#x1E68;" d="M264-4Q189-4 121 23.50Q53 51 23 92L43 116Q73 77 136 51.50Q199 26 266 26Q371 26 435.50 70.50Q500 115 500 194Q500 235 476.50 261Q453 287 418 301.50Q383 316 324 333Q259 352 220 368.50Q181 385 154 417Q127 449 127 501Q127 597 200 650.50Q273 704 390 704Q449 704 503.50 688Q558 672 596 642L578 614Q541 643 492 658.50Q443 674 389 674Q287 674 223.50 628.50Q160 583 159 504Q159 462 183 435.50Q207 409 241.50 394.50Q276 380 337 362Q401 344 440 327.50Q479 311 506 279.50Q533 248 533 198Q533 102 457.50 49Q382-4 264-4M231-179Q219-179 211.50-170.50Q204-162 206-150Q207-137 217.50-128Q228-119 241-119Q253-119 260.50-127.50Q268-136 266-148Q265-161 254.50-170Q244-179 231-179M428 788Q416 788 407 796.50Q398 805 398 817Q398 831 408 841.50Q418 852 431 852Q443 852 452 843.50Q461 835 461 823Q461 809 451 798.50Q441 788 428 788Z"  horiz-adv-x="604" vert-adv-y="1000"  />

      
      <glyph glyph-name="uni1E9E" unicode="&#x1E9E;" d="M685 603L438 388Q468 390 479 390Q568 390 619 346.50Q670 303 670 225Q670 155 639 103.50Q608 52 552 24Q496-4 422-4Q381-4 342.50 3.50Q304 11 275 26L288 56Q347 26 425 26Q521 26 579 79.50Q637 133 637 224Q637 292 594 327.50Q551 363 473 363Q422 363 383 351L379 372L657 616Q628 644 581.50 659Q535 674 476 674Q357 674 284.50 611Q212 548 188 426L104 0L70 0L157 433Q183 565 263.50 634.50Q344 704 478 704Q549 704 602.50 684.50Q656 665 690 628L685 603Z"  horiz-adv-x="745" vert-adv-y="1000"  />

      
      <glyph glyph-name="uni018F" unicode="&#x018F;" d="M475 704Q572 704 641.50 668.50Q711 633 747.50 568.50Q784 504 784 419Q784 305 733.50 208Q683 111 590 53.50Q497-4 376-4Q281-4 211 31.50Q141 67 104 130.50Q67 194 67 276Q67 306 77 364L747 364Q750 391 750 418Q750 494 718 551.50Q686 609 623.50 641Q561 673 472 673Q398 673 337.50 651.50Q277 630 234 591L215 615Q259 656 328 680Q397 704 475 704M380 27Q473 27 549 67Q625 107 675 176.50Q725 246 742 333L105 333Q100 301 100 278Q100 203 134 146Q168 89 231.50 58Q295 27 380 27Z"  horiz-adv-x="816" vert-adv-y="1000"  />

      
      <glyph glyph-name="uni54" unicode="&#x54;" d="M342 669L86 669L92 700L639 700L632 669L376 669L242 0L208 0L342 669Z"  horiz-adv-x="555" vert-adv-y="1000"  />

      
      <glyph glyph-name="uni0166" unicode="&#x0166;" d="M342 669L86 669L92 700L639 700L632 669L376 669L242 0L208 0L342 669M115 367L482 367L476 338L109 338L115 367Z"  horiz-adv-x="555" vert-adv-y="1000"  />

      
      <glyph glyph-name="uni0164" unicode="&#x0164;" d="M342 669L86 669L92 700L639 700L632 669L376 669L242 0L208 0L342 669M543 870L406 757L364 757L253 870L288 870L387 780L504 870L543 870Z"  horiz-adv-x="555" vert-adv-y="1000"  />

      
      <glyph glyph-name="uni0162" unicode="&#x0162;" d="M342 669L86 669L92 700L639 700L632 669L376 669L242 0L208 0L342 669M173-215Q123-215 94-189L110-168Q137-190 175-190Q209-190 229.50-172Q250-154 250-124Q250-102 234-89.50Q218-77 190-77L174-77L213 5L238 5L210-55Q242-58 260.50-76.50Q279-95 279-124Q279-163 249.50-189Q220-215 173-215Z"  horiz-adv-x="555" vert-adv-y="1000"  />

      
      <glyph glyph-name="uni021A" unicode="&#x021A;" d="M342 669L86 669L92 700L639 700L632 669L376 669L242 0L208 0L342 669M195-119Q208-119 216.50-127.50Q225-136 225-148Q225-157 222.50-163.50Q220-170 214-181L173-260L150-260L186-177Q177-174 171-166.50Q165-159 165-149Q165-137 173.50-128Q182-119 195-119Z"  horiz-adv-x="555" vert-adv-y="1000"  />

      
      <glyph glyph-name="uni1E6C" unicode="&#x1E6C;" d="M342 669L86 669L92 700L639 700L632 669L376 669L242 0L208 0L342 669M190-179Q178-179 170.50-170.50Q163-162 165-150Q166-137 176.50-128Q187-119 200-119Q212-119 219.50-127.50Q227-136 225-148Q224-161 213.50-170Q203-179 190-179Z"  horiz-adv-x="555" vert-adv-y="1000"  />

      
      <glyph glyph-name="uni1E6E" unicode="&#x1E6E;" d="M342 669L86 669L92 700L639 700L632 669L376 669L242 0L208 0L342 669M57-135L338-135L333-162L52-162L57-135Z"  horiz-adv-x="555" vert-adv-y="1000"  />

      
      <glyph glyph-name="uni55" unicode="&#x55;" d="M360-4Q246-4 183.50 54Q121 112 121 216Q121 258 129 295L210 700L244 700L163 296Q154 254 154 217Q154 125 207.50 76Q261 27 362 27Q478 27 548 93.50Q618 160 645 296L726 700L759 700L678 294Q619-4 360-4Z"  horiz-adv-x="793" vert-adv-y="1000"  />

      
      <glyph glyph-name="unida" unicode="&#xda;" d="M360-4Q246-4 183.50 54Q121 112 121 216Q121 258 129 295L210 700L244 700L163 296Q154 254 154 217Q154 125 207.50 76Q261 27 362 27Q478 27 548 93.50Q618 160 645 296L726 700L759 700L678 294Q619-4 360-4M596 870L653 870L487 757L445 757L596 870Z"  horiz-adv-x="793" vert-adv-y="1000"  />

      
      <glyph glyph-name="uni016C" unicode="&#x016C;" d="M360-4Q246-4 183.50 54Q121 112 121 216Q121 258 129 295L210 700L244 700L163 296Q154 254 154 217Q154 125 207.50 76Q261 27 362 27Q478 27 548 93.50Q618 160 645 296L726 700L759 700L678 294Q619-4 360-4M507 754Q449 754 412.50 786Q376 818 380 870L407 870Q404 829 432.50 804Q461 779 508 779Q554 779 588 803.50Q622 828 628 870L655 870Q647 817 605.50 785.50Q564 754 507 754Z"  horiz-adv-x="793" vert-adv-y="1000"  />

      
      <glyph glyph-name="uni01D3" unicode="&#x01D3;" d="M360-4Q246-4 183.50 54Q121 112 121 216Q121 258 129 295L210 700L244 700L163 296Q154 254 154 217Q154 125 207.50 76Q261 27 362 27Q478 27 548 93.50Q618 160 645 296L726 700L759 700L678 294Q619-4 360-4M663 870L526 757L484 757L373 870L408 870L507 780L624 870L663 870Z"  horiz-adv-x="793" vert-adv-y="1000"  />

      
      <glyph glyph-name="unidb" unicode="&#xdb;" d="M360-4Q246-4 183.50 54Q121 112 121 216Q121 258 129 295L210 700L244 700L163 296Q154 254 154 217Q154 125 207.50 76Q261 27 362 27Q478 27 548 93.50Q618 160 645 296L726 700L759 700L678 294Q619-4 360-4M606 757L507 847L390 757L351 757L488 870L530 870L641 757L606 757Z"  horiz-adv-x="793" vert-adv-y="1000"  />

      
      <glyph glyph-name="uni0214" unicode="&#x0214;" d="M360-4Q246-4 183.50 54Q121 112 121 216Q121 258 129 295L210 700L244 700L163 296Q154 254 154 217Q154 125 207.50 76Q261 27 362 27Q478 27 548 93.50Q618 160 645 296L726 700L759 700L678 294Q619-4 360-4M312 870L356 870L441 757L406 757L312 870M457 870L502 870L586 757L551 757L457 870Z"  horiz-adv-x="793" vert-adv-y="1000"  />

      
      <glyph glyph-name="unidc" unicode="&#xdc;" d="M360-4Q246-4 183.50 54Q121 112 121 216Q121 258 129 295L210 700L244 700L163 296Q154 254 154 217Q154 125 207.50 76Q261 27 362 27Q478 27 548 93.50Q618 160 645 296L726 700L759 700L678 294Q619-4 360-4M423 788Q411 788 402.50 796Q394 804 394 816Q394 830 403.50 839.50Q413 849 426 849Q437 849 446 840.50Q455 832 455 821Q455 808 445.50 798Q436 788 423 788M591 788Q579 788 570.50 796Q562 804 562 816Q562 830 571 839.50Q580 849 593 849Q605 849 613.50 840.50Q622 832 622 821Q622 807 613 797.50Q604 788 591 788Z"  horiz-adv-x="793" vert-adv-y="1000"  />

      
      <glyph glyph-name="uni1EE4" unicode="&#x1EE4;" d="M360-4Q246-4 183.50 54Q121 112 121 216Q121 258 129 295L210 700L244 700L163 296Q154 254 154 217Q154 125 207.50 76Q261 27 362 27Q478 27 548 93.50Q618 160 645 296L726 700L759 700L678 294Q619-4 360-4M310-179Q298-179 290.50-170.50Q283-162 285-150Q286-137 296.50-128Q307-119 320-119Q332-119 339.50-127.50Q347-136 345-148Q344-161 333.50-170Q323-179 310-179Z"  horiz-adv-x="793" vert-adv-y="1000"  />

      
      <glyph glyph-name="unid9" unicode="&#xd9;" d="M360-4Q246-4 183.50 54Q121 112 121 216Q121 258 129 295L210 700L244 700L163 296Q154 254 154 217Q154 125 207.50 76Q261 27 362 27Q478 27 548 93.50Q618 160 645 296L726 700L759 700L678 294Q619-4 360-4M375 870L429 870L546 757L506 757L375 870Z"  horiz-adv-x="793" vert-adv-y="1000"  />

      
      <glyph glyph-name="uni1EE6" unicode="&#x1EE6;" d="M360-4Q246-4 183.50 54Q121 112 121 216Q121 258 129 295L210 700L244 700L163 296Q154 254 154 217Q154 125 207.50 76Q261 27 362 27Q478 27 548 93.50Q618 160 645 296L726 700L759 700L678 294Q619-4 360-4M496 772Q566 802 566 853Q566 875 551.50 887.50Q537 900 513 900Q483 900 451 881L442 902Q476 925 517 925Q552 925 573 907Q594 889 594 858Q594 823 573 797.50Q552 772 507 752L496 772Z"  horiz-adv-x="793" vert-adv-y="1000"  />

      
      <glyph glyph-name="uni01AF" unicode="&#x01AF;" d="M360-4Q246-4 183.50 54Q121 112 121 216Q121 258 129 295L210 700L244 700L163 296Q154 254 154 217Q154 125 207.50 76Q261 27 362 27Q478 27 548 93.50Q618 160 645 296L726 700L759 700L678 294Q619-4 360-4M747 700L758 700Q794 700 810.50 719Q827 738 827 769Q827 801 807 836L833 846Q843 830 849.50 810Q856 790 856 770Q856 726 831.50 699Q807 672 758 672L747 672L747 700Z"  horiz-adv-x="794" vert-adv-y="1000"  />

      
      <glyph glyph-name="uni1EE8" unicode="&#x1EE8;" d="M360-4Q246-4 183.50 54Q121 112 121 216Q121 258 129 295L210 700L244 700L163 296Q154 254 154 217Q154 125 207.50 76Q261 27 362 27Q478 27 548 93.50Q618 160 645 296L726 700L759 700L678 294Q619-4 360-4M747 700L758 700Q794 700 810.50 719Q827 738 827 769Q827 801 807 836L833 846Q843 830 849.50 810Q856 790 856 770Q856 726 831.50 699Q807 672 758 672L747 672L747 700M596 870L653 870L487 757L445 757L596 870Z"  horiz-adv-x="794" vert-adv-y="1000"  />

      
      <glyph glyph-name="uni1EF0" unicode="&#x1EF0;" d="M360-4Q246-4 183.50 54Q121 112 121 216Q121 258 129 295L210 700L244 700L163 296Q154 254 154 217Q154 125 207.50 76Q261 27 362 27Q478 27 548 93.50Q618 160 645 296L726 700L759 700L678 294Q619-4 360-4M747 700L758 700Q794 700 810.50 719Q827 738 827 769Q827 801 807 836L833 846Q843 830 849.50 810Q856 790 856 770Q856 726 831.50 699Q807 672 758 672L747 672L747 700M310-179Q298-179 290.50-170.50Q283-162 285-150Q286-137 296.50-128Q307-119 320-119Q332-119 339.50-127.50Q347-136 345-148Q344-161 333.50-170Q323-179 310-179Z"  horiz-adv-x="794" vert-adv-y="1000"  />

      
      <glyph glyph-name="uni1EEA" unicode="&#x1EEA;" d="M360-4Q246-4 183.50 54Q121 112 121 216Q121 258 129 295L210 700L244 700L163 296Q154 254 154 217Q154 125 207.50 76Q261 27 362 27Q478 27 548 93.50Q618 160 645 296L726 700L759 700L678 294Q619-4 360-4M747 700L758 700Q794 700 810.50 719Q827 738 827 769Q827 801 807 836L833 846Q843 830 849.50 810Q856 790 856 770Q856 726 831.50 699Q807 672 758 672L747 672L747 700M375 870L429 870L546 757L506 757L375 870Z"  horiz-adv-x="794" vert-adv-y="1000"  />

      
      <glyph glyph-name="uni1EEC" unicode="&#x1EEC;" d="M360-4Q246-4 183.50 54Q121 112 121 216Q121 258 129 295L210 700L244 700L163 296Q154 254 154 217Q154 125 207.50 76Q261 27 362 27Q478 27 548 93.50Q618 160 645 296L726 700L759 700L678 294Q619-4 360-4M747 700L758 700Q794 700 810.50 719Q827 738 827 769Q827 801 807 836L833 846Q843 830 849.50 810Q856 790 856 770Q856 726 831.50 699Q807 672 758 672L747 672L747 700M496 772Q566 802 566 853Q566 875 551.50 887.50Q537 900 513 900Q483 900 451 881L442 902Q476 925 517 925Q552 925 573 907Q594 889 594 858Q594 823 573 797.50Q552 772 507 752L496 772Z"  horiz-adv-x="794" vert-adv-y="1000"  />

      
      <glyph glyph-name="uni1EEE" unicode="&#x1EEE;" d="M360-4Q246-4 183.50 54Q121 112 121 216Q121 258 129 295L210 700L244 700L163 296Q154 254 154 217Q154 125 207.50 76Q261 27 362 27Q478 27 548 93.50Q618 160 645 296L726 700L759 700L678 294Q619-4 360-4M747 700L758 700Q794 700 810.50 719Q827 738 827 769Q827 801 807 836L833 846Q843 830 849.50 810Q856 790 856 770Q856 726 831.50 699Q807 672 758 672L747 672L747 700M571 767Q550 767 534.50 776.50Q519 786 499 805Q482 821 470.50 828.50Q459 836 444 836Q421 836 405 818Q389 800 384 770L359 770Q365 812 388 837Q411 862 445 862Q466 862 480.50 853Q495 844 516 825Q532 809 544 801Q556 793 571 793Q594 793 610 810.50Q626 828 631 857L656 857Q649 816 626.50 791.50Q604 767 571 767Z"  horiz-adv-x="794" vert-adv-y="1000"  />

      
      <glyph glyph-name="uni0170" unicode="&#x0170;" d="M360-4Q246-4 183.50 54Q121 112 121 216Q121 258 129 295L210 700L244 700L163 296Q154 254 154 217Q154 125 207.50 76Q261 27 362 27Q478 27 548 93.50Q618 160 645 296L726 700L759 700L678 294Q619-4 360-4M524 870L572 870L443 757L404 757L524 870M669 870L717 870L588 757L549 757L669 870Z"  horiz-adv-x="793" vert-adv-y="1000"  />

      
      <glyph glyph-name="uni0216" unicode="&#x0216;" d="M360-4Q246-4 183.50 54Q121 112 121 216Q121 258 129 295L210 700L244 700L163 296Q154 254 154 217Q154 125 207.50 76Q261 27 362 27Q478 27 548 93.50Q618 160 645 296L726 700L759 700L678 294Q619-4 360-4M359 757Q367 810 408.50 842Q450 874 507 874Q564 874 600.50 841.50Q637 809 633 757L606 757Q609 799 581 824Q553 849 505 849Q460 849 426 824Q392 799 386 757L359 757Z"  horiz-adv-x="793" vert-adv-y="1000"  />

      
      <glyph glyph-name="uni016A" unicode="&#x016A;" d="M360-4Q246-4 183.50 54Q121 112 121 216Q121 258 129 295L210 700L244 700L163 296Q154 254 154 217Q154 125 207.50 76Q261 27 362 27Q478 27 548 93.50Q618 160 645 296L726 700L759 700L678 294Q619-4 360-4M369 827L650 827L645 800L364 800L369 827Z"  horiz-adv-x="793" vert-adv-y="1000"  />

      
      <glyph glyph-name="uni1E7A" unicode="&#x1E7A;" d="M360-4Q246-4 183.50 54Q121 112 121 216Q121 258 129 295L210 700L244 700L163 296Q154 254 154 217Q154 125 207.50 76Q261 27 362 27Q478 27 548 93.50Q618 160 645 296L726 700L759 700L678 294Q619-4 360-4M366 813L647 813L642 787L361 787L366 813M447 907Q436 907 427.50 915Q419 923 419 935Q419 948 428 957.50Q437 967 450 967Q462 967 470.50 959Q479 951 479 939Q479 926 469.50 916.50Q460 907 447 907M614 907Q603 907 594.50 915Q586 923 586 935Q586 948 595 957.50Q604 967 617 967Q629 967 637.50 959Q646 951 646 939Q646 926 636.50 916.50Q627 907 614 907Z"  horiz-adv-x="793" vert-adv-y="1000"  />

      
      <glyph glyph-name="uni0172" unicode="&#x0172;" d="M759 700L678 294Q629 50 449 6Q359-15 309.50-55Q260-95 260-139Q260-164 275-177Q290-190 316-190Q355-190 387-166L395-188Q361-215 312-215Q276-215 254-195.50Q232-176 232-143Q232-63 349-4Q240-1 180.50 56.50Q121 114 121 216Q121 258 129 295L210 700L244 700L163 296Q154 254 154 217Q154 125 207.50 76Q261 27 362 27Q478 27 548 93.50Q618 160 645 296L726 700L759 700Z"  horiz-adv-x="793" vert-adv-y="1000"  />

      
      <glyph glyph-name="uni016E" unicode="&#x016E;" d="M360-4Q246-4 183.50 54Q121 112 121 216Q121 258 129 295L210 700L244 700L163 296Q154 254 154 217Q154 125 207.50 76Q261 27 362 27Q478 27 548 93.50Q618 160 645 296L726 700L759 700L678 294Q619-4 360-4M520 778Q479 778 452 805Q425 832 425 871Q425 910 452.50 938Q480 966 520 966Q561 966 588.50 938Q616 910 616 871Q616 832 588.50 805Q561 778 520 778M520 800Q551 800 571.50 820.50Q592 841 592 871Q592 901 571 922Q550 943 520 943Q490 943 469.50 922Q449 901 449 871Q449 841 469 820.50Q489 800 520 800Z"  horiz-adv-x="793" vert-adv-y="1000"  />

      
      <glyph glyph-name="uni0168" unicode="&#x0168;" d="M360-4Q246-4 183.50 54Q121 112 121 216Q121 258 129 295L210 700L244 700L163 296Q154 254 154 217Q154 125 207.50 76Q261 27 362 27Q478 27 548 93.50Q618 160 645 296L726 700L759 700L678 294Q619-4 360-4M571 767Q550 767 534.50 776.50Q519 786 499 805Q482 821 470.50 828.50Q459 836 444 836Q421 836 405 818Q389 800 384 770L359 770Q365 812 388 837Q411 862 445 862Q466 862 480.50 853Q495 844 516 825Q532 809 544 801Q556 793 571 793Q594 793 610 810.50Q626 828 631 857L656 857Q649 816 626.50 791.50Q604 767 571 767Z"  horiz-adv-x="793" vert-adv-y="1000"  />

      
      <glyph glyph-name="uni1E78" unicode="&#x1E78;" d="M360-4Q246-4 183.50 54Q121 112 121 216Q121 258 129 295L210 700L244 700L163 296Q154 254 154 217Q154 125 207.50 76Q261 27 362 27Q478 27 548 93.50Q618 160 645 296L726 700L759 700L678 294Q619-4 360-4M566 770Q546 770 531.50 777.50Q517 785 499 800Q482 812 471.50 818Q461 824 448 824Q423 824 407 810.50Q391 797 386 773L361 773Q367 807 391 828Q415 849 447 849Q467 849 481.50 841.50Q496 834 515 819Q532 806 542 800.50Q552 795 565 795Q590 795 606.50 808.50Q623 822 628 845L652 845Q646 811 622.50 790.50Q599 770 566 770M607 977L661 977L510 875L470 875L607 977Z"  horiz-adv-x="793" vert-adv-y="1000"  />

      
      <glyph glyph-name="uni56" unicode="&#x56;" d="M757 700L303 0L270 0L96 700L131 700L293 43L719 700L757 700Z"  horiz-adv-x="677" vert-adv-y="1000"  />

      
      <glyph glyph-name="uni57" unicode="&#x57;" d="M1133 700L754 0L719 0L622 649L264 0L230 0L131 700L164 700L256 47L615 700L647 700L744 49L1098 700L1133 700Z"  horiz-adv-x="1088" vert-adv-y="1000"  />

      
      <glyph glyph-name="uni1E82" unicode="&#x1E82;" d="M1133 700L754 0L719 0L622 649L264 0L230 0L131 700L164 700L256 47L615 700L647 700L744 49L1098 700L1133 700M743 870L800 870L634 757L592 757L743 870Z"  horiz-adv-x="1088" vert-adv-y="1000"  />

      
      </font>
</defs>
</svg>
